<?xml version="1.0" encoding="UTF-8" standalone="no"?>
<!DOCTYPE svg PUBLIC "-//W3C//DTD SVG 1.1//EN" "http://www.w3.org/Graphics/SVG/1.1/DTD/svg11.dtd">
<!-- Создано Microsoft Visio, экспорт SVG Задача 3 Схема.svg Страница-1 -->
<svg xmlns="http://www.w3.org/2000/svg" xmlns:xlink="http://www.w3.org/1999/xlink" xmlns:ev="http://www.w3.org/2001/xml-events"
		xmlns:v="http://schemas.microsoft.com/visio/2003/SVGExtensions/" width="10.3647in" height="1.78207in"
		viewBox="0 0 746.262 128.309" xml:space="preserve" color-interpolation-filters="sRGB" class="st11">
	<v:documentProperties v:langID="1049" v:metric="true" v:viewMarkup="false"/>

	<style type="text/css">
	<![CDATA[
		.st1 {fill:#ffffff;stroke:none;stroke-linecap:round;stroke-linejoin:round;stroke-width:0.75}
		.st2 {fill:#ffffff;stroke:#000000;stroke-linecap:round;stroke-linejoin:round;stroke-width:0.24}
		.st3 {fill:#000000;fill-opacity:1;stroke:#000000;stroke-opacity:1;stroke-width:0.08695652173913}
		.st4 {fill:#000000;font-family:Calibri;font-size:1.5em}
		.st5 {baseline-shift:-32.4951%;font-size:0.649902em}
		.st6 {marker-end:url(#mrkr4-39);stroke:#000000;stroke-linecap:round;stroke-linejoin:round;stroke-width:0.75}
		.st7 {fill:#000000;fill-opacity:1;stroke:#000000;stroke-opacity:1;stroke-width:0.22935779816514}
		.st8 {fill:#ffffff;stroke:none;stroke-linecap:butt;stroke-width:7.2}
		.st9 {fill:#000000;font-family:Calibri;font-size:0.833336em}
		.st10 {font-size:1em}
		.st11 {fill:none;fill-rule:evenodd;font-size:12px;overflow:visible;stroke-linecap:square;stroke-miterlimit:3}
	]]>
	</style>

	<defs id="Markers">
		<g id="lend4">
			<path d="M 2 1 L 0 0 L 2 -1 L 2 1 " style="stroke:none"/>
		</g>
		<marker id="mrkr4-6" class="st3" v:arrowType="4" v:arrowSize="2" v:setback="23" refX="-23" orient="auto"
				markerUnits="strokeWidth" overflow="visible">
			<use xlink:href="#lend4" transform="scale(-11.5,-11.5) "/>
		</marker>
		<marker id="mrkr4-39" class="st7" v:arrowType="4" v:arrowSize="2" v:setback="8.24" refX="-8.24" orient="auto"
				markerUnits="strokeWidth" overflow="visible">
			<use xlink:href="#lend4" transform="scale(-4.36,-4.36) "/>
		</marker>
	</defs>
	<g v:mID="0" v:index="1" v:groupContext="foregroundPage">
		<title>Страница-1</title>
		<v:pageProperties v:drawingScale="0.0393701" v:pageScale="0.0393701" v:drawingUnits="24" v:shadowOffsetX="8.50394"
				v:shadowOffsetY="-8.50394"/>
		<v:layer v:name="Соединительная линия" v:index="0"/>
		<v:layer v:name="Блок-схема" v:index="1"/>
		<g id="shape42-1" v:mID="42" v:groupContext="shape" transform="translate(0.375,-0.375)">
			<title>Лист.42</title>
			<rect x="0" y="0.749999" width="745.512" height="127.559" class="st1"/>
		</g>
		<g id="shape1-3" v:mID="1" v:groupContext="shape" v:layerMember="0;1" transform="translate(115.651,-40.06)">
			<title>Ссылка на текущую страницу</title>
			<desc>S1</desc>
			<v:userDefs>
				<v:ud v:nameU="visVersion" v:prompt="" v:val="VT0(15):26"/>
			</v:userDefs>
			<v:textBlock v:margins="rect(2,2,2,2)" v:tabSpace="42.5197"/>
			<v:textRect cx="22.6772" cy="105.632" width="45.36" height="45.3543"/>
			<path d="M0 105.63 A22.6772 22.6772 0 0 1 45.35 105.63 A22.6772 22.6772 0 1 1 0 105.63 Z" class="st2"/>
			<text x="15.58" y="111.03" class="st4" v:langID="1033"><v:paragraph v:horizAlign="1"/><v:tabList/>S<tspan dy="-0.284em"
						class="st5" v:baseFontSize="18">1</tspan></text>		</g>
		<g id="shape6-9" v:mID="6" v:groupContext="shape" v:layerMember="0;1" transform="translate(211.084,-40.06)">
			<title>Ссылка на текущую страницу.6</title>
			<desc>S2</desc>
			<v:userDefs>
				<v:ud v:nameU="visVersion" v:prompt="" v:val="VT0(15):26"/>
			</v:userDefs>
			<v:textBlock v:margins="rect(2,2,2,2)" v:tabSpace="42.5197"/>
			<v:textRect cx="22.6772" cy="105.632" width="45.36" height="45.3543"/>
			<path d="M0 105.63 A22.6772 22.6772 0 0 1 45.35 105.63 A22.6772 22.6772 0 1 1 0 105.63 Z" class="st2"/>
			<text x="15.58" y="111.03" class="st4" v:langID="1033"><v:paragraph v:horizAlign="1"/><v:tabList/>S<tspan dy="-0.284em"
						class="st5" v:baseFontSize="18">2</tspan></text>		</g>
		<g id="shape7-14" v:mID="7" v:groupContext="shape" v:layerMember="0;1" transform="translate(306.517,-40.06)">
			<title>Ссылка на текущую страницу.7</title>
			<desc>...</desc>
			<v:userDefs>
				<v:ud v:nameU="visVersion" v:prompt="" v:val="VT0(15):26"/>
			</v:userDefs>
			<v:textBlock v:margins="rect(2,2,2,2)" v:tabSpace="42.5197"/>
			<v:textRect cx="22.6772" cy="105.632" width="45.36" height="45.3543"/>
			<path d="M0 105.63 A22.6772 22.6772 0 0 1 45.35 105.63 A22.6772 22.6772 0 1 1 0 105.63 Z" class="st2"/>
			<text x="15.86" y="111.03" class="st4" v:langID="1033"><v:paragraph v:horizAlign="1"/><v:tabList/>...</text>		</g>
		<g id="shape8-18" v:mID="8" v:groupContext="shape" v:layerMember="0;1" transform="translate(401.95,-40.06)">
			<title>Ссылка на текущую страницу.8</title>
			<desc>Sn</desc>
			<v:userDefs>
				<v:ud v:nameU="visVersion" v:prompt="" v:val="VT0(15):26"/>
			</v:userDefs>
			<v:textBlock v:margins="rect(2,2,2,2)" v:tabSpace="42.5197"/>
			<v:textRect cx="22.6772" cy="105.632" width="45.36" height="45.3543"/>
			<path d="M0 105.63 A22.6772 22.6772 0 0 1 45.35 105.63 A22.6772 22.6772 0 1 1 0 105.63 Z" class="st2"/>
			<text x="15.47" y="111.03" class="st4" v:langID="1033"><v:paragraph v:horizAlign="1"/><v:tabList/>S<tspan dy="-0.284em"
						class="st5" v:baseFontSize="18">n</tspan></text>		</g>
		<g id="shape9-23" v:mID="9" v:groupContext="shape" v:layerMember="0;1" transform="translate(497.383,-40.06)">
			<title>Ссылка на текущую страницу.9</title>
			<desc>...</desc>
			<v:userDefs>
				<v:ud v:nameU="visVersion" v:prompt="" v:val="VT0(15):26"/>
			</v:userDefs>
			<v:textBlock v:margins="rect(2,2,2,2)" v:tabSpace="42.5197"/>
			<v:textRect cx="22.6772" cy="105.632" width="45.36" height="45.3543"/>
			<path d="M0 105.63 A22.6772 22.6772 0 0 1 45.35 105.63 A22.6772 22.6772 0 1 1 0 105.63 Z" class="st2"/>
			<text x="15.86" y="111.03" class="st4" v:langID="1033"><v:paragraph v:horizAlign="1"/><v:tabList/>...</text>		</g>
		<g id="shape10-27" v:mID="10" v:groupContext="shape" v:layerMember="0;1" transform="translate(592.816,-40.06)">
			<title>Ссылка на текущую страницу.10</title>
			<desc>Sn+r</desc>
			<v:userDefs>
				<v:ud v:nameU="visVersion" v:prompt="" v:val="VT0(15):26"/>
			</v:userDefs>
			<v:textBlock v:margins="rect(2,2,2,2)" v:tabSpace="42.5197"/>
			<v:textRect cx="22.6772" cy="105.632" width="45.36" height="45.3543"/>
			<path d="M0 105.63 A22.6772 22.6772 0 0 1 45.35 105.63 A22.6772 22.6772 0 1 1 0 105.63 Z" class="st2"/>
			<text x="10.52" y="111.03" class="st4" v:langID="1033"><v:paragraph v:horizAlign="1"/><v:tabList/>S<tspan dy="-0.284em"
						class="st5" v:baseFontSize="18">n</tspan><tspan class="st5" v:baseFontSize="18">+</tspan><tspan class="st5"
						v:baseFontSize="18">r</tspan></text>		</g>
		<g id="shape12-34" v:mID="12" v:groupContext="shape" v:layerMember="0" transform="translate(138.328,-92.501)">
			<title>Динамическая соединительная линия</title>
			<desc>λ</desc>
			<v:textBlock v:margins="rect(4,4,4,4)" v:tabSpace="42.5197"/>
			<v:textRect cx="49.3684" cy="114.136" width="50" height="20.0036"/>
			<path d="M0 135.4 C0 124.77 23.86 124.77 47.72 124.77 C66.25 124.77 84.78 124.77 92.13 129.75 L92.32 130.06"
					class="st6"/>
			<rect v:rectContext="textBkgnd" x="47.0541" y="108.136" width="4.62881" height="12.0001" class="st8"/>
			<text x="47.05" y="117.14" class="st9" v:langID="1049"><v:paragraph v:horizAlign="1"/><v:tabList/>λ </text>		</g>
		<g id="shape13-42" v:mID="13" v:groupContext="shape" v:layerMember="0" transform="translate(233.761,-78.3278)">
			<title>Динамическая соединительная линия.13</title>
			<desc>λ</desc>
			<v:textBlock v:margins="rect(4,4,4,4)" v:tabSpace="42.5197"/>
			<v:textRect cx="47.1659" cy="101.38" width="50" height="20.0036"/>
			<path d="M0 121.22 C0 110.59 23.86 110.59 47.72 110.59 C66.25 110.59 84.78 110.59 92.13 115.58 L92.32 115.89"
					class="st6"/>
			<rect v:rectContext="textBkgnd" x="44.8516" y="95.3801" width="4.62881" height="12.0001" class="st8"/>
			<text x="44.85" y="104.38" class="st9" v:langID="1049"><v:paragraph v:horizAlign="1"/><v:tabList/>λ </text>		</g>
		<g id="shape14-49" v:mID="14" v:groupContext="shape" v:layerMember="0" transform="translate(329.194,-78.3278)">
			<title>Динамическая соединительная линия.14</title>
			<desc>λ</desc>
			<v:textBlock v:margins="rect(4,4,4,4)" v:tabSpace="42.5197"/>
			<v:textRect cx="47.7165" cy="101.38" width="50" height="20.0036"/>
			<path d="M0 121.22 C-0 110.59 23.86 110.59 47.72 110.59 C66.25 110.59 84.78 110.59 92.13 115.58 L92.32 115.89"
					class="st6"/>
			<rect v:rectContext="textBkgnd" x="45.4022" y="95.3801" width="4.62881" height="12.0001" class="st8"/>
			<text x="45.4" y="104.38" class="st9" v:langID="1049"><v:paragraph v:horizAlign="1"/><v:tabList/>λ </text>		</g>
		<g id="shape15-56" v:mID="15" v:groupContext="shape" v:layerMember="0" transform="translate(424.627,-78.3278)">
			<title>Динамическая соединительная линия.15</title>
			<desc>λ</desc>
			<v:textBlock v:margins="rect(4,4,4,4)" v:tabSpace="42.5197"/>
			<v:textRect cx="48.2671" cy="101.38" width="50" height="20.0036"/>
			<path d="M0 121.22 C0 110.59 23.86 110.59 47.72 110.59 C66.25 110.59 84.78 110.59 92.13 115.58 L92.32 115.89"
					class="st6"/>
			<rect v:rectContext="textBkgnd" x="45.9528" y="95.3801" width="4.62881" height="12.0001" class="st8"/>
			<text x="45.95" y="104.38" class="st9" v:langID="1049"><v:paragraph v:horizAlign="1"/><v:tabList/>λ </text>		</g>
		<g id="shape16-63" v:mID="16" v:groupContext="shape" v:layerMember="0" transform="translate(520.06,-78.3278)">
			<title>Динамическая соединительная линия.16</title>
			<desc>λ</desc>
			<v:textBlock v:margins="rect(4,4,4,4)" v:tabSpace="42.5197"/>
			<v:textRect cx="48.8178" cy="99.9626" width="50" height="20.0036"/>
			<path d="M0 121.22 C0 110.59 23.86 110.59 47.72 110.59 C66.25 110.59 84.78 110.59 92.13 115.58 L92.32 115.89"
					class="st6"/>
			<rect v:rectContext="textBkgnd" x="46.5034" y="93.9628" width="4.62881" height="12.0001" class="st8"/>
			<text x="46.5" y="102.96" class="st9" v:langID="1049"><v:paragraph v:horizAlign="1"/><v:tabList/>λ </text>		</g>
		<g id="shape17-70" v:mID="17" v:groupContext="shape" v:layerMember="0" transform="translate(615.493,-32.9734)">
			<title>Динамическая соединительная линия.17</title>
			<desc>nμ + rω</desc>
			<v:textBlock v:margins="rect(4,4,4,4)" v:tabSpace="42.5197"/>
			<v:textRect cx="-46.6153" cy="140.498" width="50" height="20.0036"/>
			<path d="M0 121.22 C0 131.85 -23.86 131.85 -47.72 131.85 C-66.25 131.85 -84.78 131.85 -92.13 126.87 L-92.32 126.56"
					class="st6"/>
			<rect v:rectContext="textBkgnd" x="-61.9668" y="134.498" width="30.7029" height="12.0001" class="st8"/>
			<text x="-61.97" y="143.5" class="st9" v:langID="1033"><v:paragraph v:horizAlign="1"/><v:tabList/>n<tspan class="st10"
						v:langID="1049">μ</tspan> + rω</text>		</g>
		<g id="shape18-78" v:mID="18" v:groupContext="shape" v:layerMember="0" transform="translate(520.06,-32.9734)">
			<title>Динамическая соединительная линия.18</title>
			<desc>nμ + ω</desc>
			<v:textBlock v:margins="rect(4,4,4,4)" v:tabSpace="42.5197"/>
			<v:textRect cx="-47.1659" cy="141.065" width="50" height="20.0036"/>
			<path d="M0 121.22 C-0 131.85 -23.86 131.85 -47.72 131.85 C-66.25 131.85 -84.78 131.85 -92.13 126.87 L-92.32 126.56"
					class="st6"/>
			<rect v:rectContext="textBkgnd" x="-60.7742" y="135.065" width="27.2167" height="12.0001" class="st8"/>
			<text x="-60.77" y="144.07" class="st9" v:langID="1033"><v:paragraph v:horizAlign="1"/><v:tabList/>n<tspan class="st10"
						v:langID="1049">μ</tspan> + ω   </text>		</g>
		<g id="shape19-86" v:mID="19" v:groupContext="shape" v:layerMember="0" transform="translate(424.627,-47.1467)">
			<title>Динамическая соединительная линия.19</title>
			<desc>nμ</desc>
			<v:textBlock v:margins="rect(4,4,4,4)" v:tabSpace="42.5197"/>
			<v:textRect cx="-43.586" cy="158.073" width="50" height="20.0036"/>
			<path d="M0 135.4 C-0 146.03 -23.86 146.03 -47.72 146.03 C-66.25 146.03 -84.78 146.03 -92.13 141.04 L-92.32 140.73"
					class="st6"/>
			<rect v:rectContext="textBkgnd" x="-48.9619" y="152.073" width="10.752" height="12.0001" class="st8"/>
			<text x="-48.96" y="161.07" class="st9" v:langID="1033"><v:paragraph v:horizAlign="1"/><v:tabList/>n<tspan class="st10"
						v:langID="1049">μ</tspan> </text>		</g>
		<g id="shape20-94" v:mID="20" v:groupContext="shape" v:layerMember="0" transform="translate(329.194,-32.9734)">
			<title>Динамическая соединительная линия.20</title>
			<desc>3μ</desc>
			<v:textBlock v:margins="rect(4,4,4,4)" v:tabSpace="42.5197"/>
			<v:textRect cx="-44.9631" cy="143.9" width="50" height="20.0036"/>
			<path d="M0 121.22 C-0 131.85 -23.86 131.85 -47.72 131.85 C-66.25 131.85 -84.78 131.85 -92.13 126.87 L-92.32 126.56"
					class="st6"/>
			<rect v:rectContext="textBkgnd" x="-50.2462" y="137.9" width="10.5664" height="12.0001" class="st8"/>
			<text x="-50.25" y="146.9" class="st9" v:langID="1033"><v:paragraph v:horizAlign="1"/><v:tabList/>3<tspan class="st10"
						v:langID="1049">μ</tspan> </text>		</g>
		<g id="shape21-102" v:mID="21" v:groupContext="shape" v:layerMember="0" transform="translate(233.761,-32.9734)">
			<title>Динамическая соединительная линия.21</title>
			<desc>2μ</desc>
			<v:textBlock v:margins="rect(4,4,4,4)" v:tabSpace="42.5197"/>
			<v:textRect cx="-48.8178" cy="143.9" width="50" height="20.0036"/>
			<path d="M0 121.22 C0 131.85 -23.86 131.85 -47.72 131.85 C-66.25 131.85 -84.78 131.85 -92.13 126.87 L-92.32 126.56"
					class="st6"/>
			<rect v:rectContext="textBkgnd" x="-54.1009" y="137.9" width="10.5664" height="12.0001" class="st8"/>
			<text x="-54.1" y="146.9" class="st9" v:langID="1049"><v:paragraph v:horizAlign="1"/><v:tabList/>2μ </text>		</g>
		<g id="shape30-109" v:mID="30" v:groupContext="shape" v:layerMember="0;1" transform="translate(20.2175,-40.06)">
			<title>Ссылка на текущую страницу.30</title>
			<desc>S0</desc>
			<v:userDefs>
				<v:ud v:nameU="visVersion" v:prompt="" v:val="VT0(15):26"/>
			</v:userDefs>
			<v:textBlock v:margins="rect(2,2,2,2)" v:tabSpace="42.5197"/>
			<v:textRect cx="22.6772" cy="105.632" width="45.36" height="45.3543"/>
			<path d="M0 105.63 A22.6772 22.6772 0 0 1 45.35 105.63 A22.6772 22.6772 0 1 1 0 105.63 Z" class="st2"/>
			<text x="15.58" y="111.03" class="st4" v:langID="1033"><v:paragraph v:horizAlign="1"/><v:tabList/>S<tspan dy="-0.284em"
						class="st5" v:langID="1049" v:baseFontSize="18">0</tspan></text>		</g>
		<g id="shape31-114" v:mID="31" v:groupContext="shape" v:layerMember="0" transform="translate(42.8947,-78.3278)">
			<title>Динамическая соединительная линия.31</title>
			<desc>λ</desc>
			<v:textBlock v:margins="rect(4,4,4,4)" v:tabSpace="42.5197"/>
			<v:textRect cx="49.6063" cy="99.9626" width="50" height="20.0036"/>
			<path d="M0 121.22 C0 110.59 23.86 110.59 47.72 110.59 C66.25 110.59 84.78 110.59 92.13 115.58 L92.32 115.89"
					class="st6"/>
			<rect v:rectContext="textBkgnd" x="47.292" y="93.9628" width="4.62881" height="12.0001" class="st8"/>
			<text x="47.29" y="102.96" class="st9" v:langID="1049"><v:paragraph v:horizAlign="1"/><v:tabList/>λ </text>		</g>
		<g id="shape32-121" v:mID="32" v:groupContext="shape" v:layerMember="0" transform="translate(138.328,-32.9734)">
			<title>Динамическая соединительная линия.32</title>
			<desc>μ</desc>
			<v:textBlock v:margins="rect(4,4,4,4)" v:tabSpace="42.5197"/>
			<v:textRect cx="-48.9449" cy="143.333" width="50" height="20.0036"/>
			<path d="M0 121.22 C-0 131.85 -23.86 131.85 -47.72 131.85 C-66.25 131.85 -84.78 131.85 -92.13 126.87 L-92.32 126.56"
					class="st6"/>
			<rect v:rectContext="textBkgnd" x="-51.694" y="137.333" width="5.49811" height="12.0001" class="st8"/>
			<text x="-51.69" y="146.33" class="st9" v:langID="1049"><v:paragraph v:horizAlign="1"/><v:tabList/>μ </text>		</g>
		<g id="shape36-128" v:mID="36" v:groupContext="shape" v:layerMember="0;1" transform="translate(688.249,-40.06)">
			<title>Ссылка на текущую страницу.36</title>
			<desc>...</desc>
			<v:userDefs>
				<v:ud v:nameU="visVersion" v:prompt="" v:val="VT0(15):26"/>
			</v:userDefs>
			<v:textBlock v:margins="rect(2,2,2,2)" v:tabSpace="42.5197"/>
			<v:textRect cx="22.6772" cy="105.632" width="45.36" height="45.3543"/>
			<path d="M0 105.63 A22.6772 22.6772 0 0 1 45.35 105.63 A22.6772 22.6772 0 1 1 0 105.63 Z" class="st2"/>
			<text x="15.86" y="111.03" class="st4" v:langID="1033"><v:paragraph v:horizAlign="1"/><v:tabList/>...</text>		</g>
		<g id="shape37-132" v:mID="37" v:groupContext="shape" v:layerMember="0" transform="translate(615.493,-78.3278)">
			<title>Динамическая соединительная линия.37</title>
			<desc>λ</desc>
			<v:textBlock v:margins="rect(4,4,4,4)" v:tabSpace="42.5197"/>
			<v:textRect cx="51.0236" cy="101.38" width="50" height="20.0036"/>
			<path d="M0 121.22 C0 110.59 23.86 110.59 47.72 110.59 C66.25 110.59 84.78 110.59 92.13 115.58 L92.32 115.89"
					class="st6"/>
			<rect v:rectContext="textBkgnd" x="48.7093" y="95.3801" width="4.62881" height="12.0001" class="st8"/>
			<text x="48.71" y="104.38" class="st9" v:langID="1049"><v:paragraph v:horizAlign="1"/><v:tabList/>λ </text>		</g>
		<g id="shape38-139" v:mID="38" v:groupContext="shape" v:layerMember="0" transform="translate(710.926,-32.9734)">
			<title>Динамическая соединительная линия.38</title>
			<desc>nμ + (r + 1)ω</desc>
			<v:textBlock v:margins="rect(4,4,4,4)" v:tabSpace="42.5197"/>
			<v:textRect cx="-44.4094" cy="141.065" width="61.15" height="20.0036"/>
			<path d="M0 121.22 C-0 131.85 -23.86 131.85 -47.72 131.85 C-66.25 131.85 -84.78 131.85 -92.13 126.87 L-92.32 126.56"
					class="st6"/>
			<rect v:rectContext="textBkgnd" x="-70.0781" y="135.065" width="51.3375" height="12.0001" class="st8"/>
			<text x="-70.08" y="144.07" class="st9" v:langID="1033"><v:paragraph v:horizAlign="1"/><v:tabList/>n<tspan class="st10"
						v:langID="1049">μ</tspan> + (r + 1)ω</text>		</g>
	</g>
</svg>
