<?xml version="1.0" encoding="UTF-8" standalone="no"?>
<!DOCTYPE svg PUBLIC "-//W3C//DTD SVG 1.1//EN" "http://www.w3.org/Graphics/SVG/1.1/DTD/svg11.dtd">
<!-- Создано Microsoft Visio, экспорт SVG StateGraph 2.svg Страница-1 -->
<svg xmlns="http://www.w3.org/2000/svg" xmlns:xlink="http://www.w3.org/1999/xlink" xmlns:ev="http://www.w3.org/2001/xml-events"
		xmlns:v="http://schemas.microsoft.com/visio/2003/SVGExtensions/" width="8.94742in" height="2.1364in"
		viewBox="0 0 644.215 153.821" xml:space="preserve" color-interpolation-filters="sRGB" class="st10">
	<v:documentProperties v:langID="1049" v:metric="true" v:viewMarkup="false"/>

	<style type="text/css">
	<![CDATA[
		.st1 {fill:#ffffff;stroke:none;stroke-linecap:round;stroke-linejoin:round;stroke-width:0.75}
		.st2 {fill:#ffffff;stroke:#000000;stroke-linecap:round;stroke-linejoin:round;stroke-width:0.24}
		.st3 {fill:#000000;fill-opacity:1;stroke:#000000;stroke-opacity:1;stroke-width:0.08695652173913}
		.st4 {fill:#000000;font-family:Calibri;font-size:1.5em}
		.st5 {baseline-shift:-32.4951%;font-size:0.649902em}
		.st6 {marker-end:url(#mrkr4-39);stroke:#000000;stroke-linecap:round;stroke-linejoin:round;stroke-width:0.75}
		.st7 {fill:#000000;fill-opacity:1;stroke:#000000;stroke-opacity:1;stroke-width:0.22935779816514}
		.st8 {fill:#ffffff;stroke:none;stroke-linecap:butt;stroke-width:7.2}
		.st9 {fill:#000000;font-family:Calibri;font-size:0.833336em}
		.st10 {fill:none;fill-rule:evenodd;font-size:12px;overflow:visible;stroke-linecap:square;stroke-miterlimit:3}
	]]>
	</style>

	<defs id="Markers">
		<g id="lend4">
			<path d="M 2 1 L 0 0 L 2 -1 L 2 1 " style="stroke:none"/>
		</g>
		<marker id="mrkr4-6" class="st3" v:arrowType="4" v:arrowSize="2" v:setback="23" refX="-23" orient="auto"
				markerUnits="strokeWidth" overflow="visible">
			<use xlink:href="#lend4" transform="scale(-11.5,-11.5) "/>
		</marker>
		<marker id="mrkr4-39" class="st7" v:arrowType="4" v:arrowSize="2" v:setback="8.24" refX="-8.24" orient="auto"
				markerUnits="strokeWidth" overflow="visible">
			<use xlink:href="#lend4" transform="scale(-4.36,-4.36) "/>
		</marker>
	</defs>
	<g v:mID="0" v:index="1" v:groupContext="foregroundPage">
		<title>Страница-1</title>
		<v:pageProperties v:drawingScale="0.0393701" v:pageScale="0.0393701" v:drawingUnits="24" v:shadowOffsetX="8.50394"
				v:shadowOffsetY="-8.50394"/>
		<v:layer v:name="Соединительная линия" v:index="0"/>
		<v:layer v:name="Блок-схема" v:index="1"/>
		<g id="shape35-1" v:mID="35" v:groupContext="shape" transform="translate(0.375,-0.375)">
			<title>Лист.35</title>
			<rect x="0" y="0.749996" width="643.465" height="153.071" class="st1"/>
		</g>
		<g id="shape1-3" v:mID="1" v:groupContext="shape" v:layerMember="0;1" transform="translate(107.147,-48.564)">
			<title>Ссылка на текущую страницу</title>
			<desc>S1</desc>
			<v:userDefs>
				<v:ud v:nameU="visVersion" v:prompt="" v:val="VT0(15):26"/>
			</v:userDefs>
			<v:textBlock v:margins="rect(2,2,2,2)" v:tabSpace="42.5197"/>
			<v:textRect cx="22.6772" cy="131.144" width="45.36" height="45.3543"/>
			<path d="M0 131.14 A22.6772 22.6772 0 0 1 45.35 131.14 A22.6772 22.6772 0 1 1 0 131.14 Z" class="st2"/>
			<text x="15.58" y="136.54" class="st4" v:langID="1033"><v:paragraph v:horizAlign="1"/><v:tabList/>S<tspan dy="-0.284em"
						class="st5" v:baseFontSize="18">1</tspan></text>		</g>
		<g id="shape6-9" v:mID="6" v:groupContext="shape" v:layerMember="0;1" transform="translate(202.58,-48.564)">
			<title>Ссылка на текущую страницу.6</title>
			<desc>S2</desc>
			<v:userDefs>
				<v:ud v:nameU="visVersion" v:prompt="" v:val="VT0(15):26"/>
			</v:userDefs>
			<v:textBlock v:margins="rect(2,2,2,2)" v:tabSpace="42.5197"/>
			<v:textRect cx="22.6772" cy="131.144" width="45.36" height="45.3543"/>
			<path d="M0 131.14 A22.6772 22.6772 0 0 1 45.35 131.14 A22.6772 22.6772 0 1 1 0 131.14 Z" class="st2"/>
			<text x="15.58" y="136.54" class="st4" v:langID="1033"><v:paragraph v:horizAlign="1"/><v:tabList/>S<tspan dy="-0.284em"
						class="st5" v:baseFontSize="18">2</tspan></text>		</g>
		<g id="shape7-14" v:mID="7" v:groupContext="shape" v:layerMember="0;1" transform="translate(298.013,-48.564)">
			<title>Ссылка на текущую страницу.7</title>
			<desc>S3</desc>
			<v:userDefs>
				<v:ud v:nameU="visVersion" v:prompt="" v:val="VT0(15):26"/>
			</v:userDefs>
			<v:textBlock v:margins="rect(2,2,2,2)" v:tabSpace="42.5197"/>
			<v:textRect cx="22.6772" cy="131.144" width="45.36" height="45.3543"/>
			<path d="M0 131.14 A22.6772 22.6772 0 0 1 45.35 131.14 A22.6772 22.6772 0 1 1 0 131.14 Z" class="st2"/>
			<text x="15.58" y="136.54" class="st4" v:langID="1033"><v:paragraph v:horizAlign="1"/><v:tabList/>S<tspan dy="-0.284em"
						class="st5" v:baseFontSize="18">3</tspan></text>		</g>
		<g id="shape8-19" v:mID="8" v:groupContext="shape" v:layerMember="0;1" transform="translate(393.446,-48.564)">
			<title>Ссылка на текущую страницу.8</title>
			<desc>S4</desc>
			<v:userDefs>
				<v:ud v:nameU="visVersion" v:prompt="" v:val="VT0(15):26"/>
			</v:userDefs>
			<v:textBlock v:margins="rect(2,2,2,2)" v:tabSpace="42.5197"/>
			<v:textRect cx="22.6772" cy="131.144" width="45.36" height="45.3543"/>
			<path d="M0 131.14 A22.6772 22.6772 0 0 1 45.35 131.14 A22.6772 22.6772 0 1 1 0 131.14 Z" class="st2"/>
			<text x="15.58" y="136.54" class="st4" v:langID="1033"><v:paragraph v:horizAlign="1"/><v:tabList/>S<tspan dy="-0.284em"
						class="st5" v:baseFontSize="18">4</tspan></text>		</g>
		<g id="shape9-24" v:mID="9" v:groupContext="shape" v:layerMember="0;1" transform="translate(488.879,-48.564)">
			<title>Ссылка на текущую страницу.9</title>
			<desc>S5</desc>
			<v:userDefs>
				<v:ud v:nameU="visVersion" v:prompt="" v:val="VT0(15):26"/>
			</v:userDefs>
			<v:textBlock v:margins="rect(2,2,2,2)" v:tabSpace="42.5197"/>
			<v:textRect cx="22.6772" cy="131.144" width="45.36" height="45.3543"/>
			<path d="M0 131.14 A22.6772 22.6772 0 0 1 45.35 131.14 A22.6772 22.6772 0 1 1 0 131.14 Z" class="st2"/>
			<text x="15.58" y="136.54" class="st4" v:langID="1033"><v:paragraph v:horizAlign="1"/><v:tabList/>S<tspan dy="-0.284em"
						class="st5" v:baseFontSize="18">5</tspan></text>		</g>
		<g id="shape10-29" v:mID="10" v:groupContext="shape" v:layerMember="0;1" transform="translate(584.312,-48.564)">
			<title>Ссылка на текущую страницу.10</title>
			<desc>S6</desc>
			<v:userDefs>
				<v:ud v:nameU="visVersion" v:prompt="" v:val="VT0(15):26"/>
			</v:userDefs>
			<v:textBlock v:margins="rect(2,2,2,2)" v:tabSpace="42.5197"/>
			<v:textRect cx="22.6772" cy="131.144" width="45.36" height="45.3543"/>
			<path d="M0 131.14 A22.6772 22.6772 0 0 1 45.35 131.14 A22.6772 22.6772 0 1 1 0 131.14 Z" class="st2"/>
			<text x="15.58" y="136.54" class="st4" v:langID="1033"><v:paragraph v:horizAlign="1"/><v:tabList/>S<tspan dy="-0.284em"
						class="st5" v:baseFontSize="18">6</tspan></text>		</g>
		<g id="shape12-34" v:mID="12" v:groupContext="shape" v:layerMember="0" transform="translate(129.824,-101.005)">
			<title>Динамическая соединительная линия</title>
			<desc>λ</desc>
			<v:textBlock v:margins="rect(4,4,4,4)" v:tabSpace="42.5197"/>
			<v:textRect cx="49.3684" cy="139.648" width="50" height="20.0036"/>
			<path d="M0 160.91 C0 150.28 23.86 150.28 47.72 150.28 C66.25 150.28 84.78 150.28 92.13 155.26 L92.32 155.57"
					class="st6"/>
			<rect v:rectContext="textBkgnd" x="47.0541" y="133.648" width="4.62881" height="12.0001" class="st8"/>
			<text x="47.05" y="142.65" class="st9" v:langID="1049"><v:paragraph v:horizAlign="1"/><v:tabList/>λ </text>		</g>
		<g id="shape13-42" v:mID="13" v:groupContext="shape" v:layerMember="0" transform="translate(225.257,-86.8317)">
			<title>Динамическая соединительная линия.13</title>
			<desc>λ</desc>
			<v:textBlock v:margins="rect(4,4,4,4)" v:tabSpace="42.5197"/>
			<v:textRect cx="47.1659" cy="126.892" width="50" height="20.0036"/>
			<path d="M0 146.73 C-0 136.1 23.86 136.1 47.72 136.1 C66.25 136.1 84.78 136.1 92.13 141.09 L92.32 141.4" class="st6"/>
			<rect v:rectContext="textBkgnd" x="44.8516" y="120.892" width="4.62881" height="12.0001" class="st8"/>
			<text x="44.85" y="129.89" class="st9" v:langID="1049"><v:paragraph v:horizAlign="1"/><v:tabList/>λ </text>		</g>
		<g id="shape14-49" v:mID="14" v:groupContext="shape" v:layerMember="0" transform="translate(320.69,-86.8317)">
			<title>Динамическая соединительная линия.14</title>
			<desc>λ</desc>
			<v:textBlock v:margins="rect(4,4,4,4)" v:tabSpace="42.5197"/>
			<v:textRect cx="47.7165" cy="126.892" width="50" height="20.0036"/>
			<path d="M0 146.73 C0 136.1 23.86 136.1 47.72 136.1 C66.25 136.1 84.78 136.1 92.13 141.09 L92.32 141.4" class="st6"/>
			<rect v:rectContext="textBkgnd" x="45.4022" y="120.892" width="4.62881" height="12.0001" class="st8"/>
			<text x="45.4" y="129.89" class="st9" v:langID="1049"><v:paragraph v:horizAlign="1"/><v:tabList/>λ </text>		</g>
		<g id="shape15-56" v:mID="15" v:groupContext="shape" v:layerMember="0" transform="translate(416.123,-101.005)">
			<title>Динамическая соединительная линия.15</title>
			<desc>λ</desc>
			<v:textBlock v:margins="rect(4,4,4,4)" v:tabSpace="42.5197"/>
			<v:textRect cx="48.2671" cy="141.065" width="50" height="20.0036"/>
			<path d="M0 160.91 C0 150.28 23.86 150.28 47.72 150.28 C66.25 150.28 84.78 150.28 92.13 155.26 L92.32 155.57"
					class="st6"/>
			<rect v:rectContext="textBkgnd" x="45.9528" y="135.065" width="4.62881" height="12.0001" class="st8"/>
			<text x="45.95" y="144.07" class="st9" v:langID="1049"><v:paragraph v:horizAlign="1"/><v:tabList/>λ </text>		</g>
		<g id="shape16-63" v:mID="16" v:groupContext="shape" v:layerMember="0" transform="translate(511.556,-101.005)">
			<title>Динамическая соединительная линия.16</title>
			<desc>λ</desc>
			<v:textBlock v:margins="rect(4,4,4,4)" v:tabSpace="42.5197"/>
			<v:textRect cx="48.8178" cy="139.648" width="50" height="20.0036"/>
			<path d="M0 160.91 C0 150.28 23.86 150.28 47.72 150.28 C66.25 150.28 84.78 150.28 92.13 155.26 L92.32 155.57"
					class="st6"/>
			<rect v:rectContext="textBkgnd" x="46.5034" y="133.648" width="4.62881" height="12.0001" class="st8"/>
			<text x="46.5" y="142.65" class="st9" v:langID="1049"><v:paragraph v:horizAlign="1"/><v:tabList/>λ </text>		</g>
		<g id="shape17-70" v:mID="17" v:groupContext="shape" v:layerMember="0" transform="translate(606.989,-41.4774)">
			<title>Динамическая соединительная линия.17</title>
			<desc>2μ</desc>
			<v:textBlock v:margins="rect(4,4,4,4)" v:tabSpace="42.5197"/>
			<v:textRect cx="-46.6153" cy="166.01" width="50" height="20.0036"/>
			<path d="M0 146.73 C-0 157.36 -23.86 157.36 -47.72 157.36 C-66.25 157.36 -84.78 157.36 -92.13 152.38 L-92.32 152.07"
					class="st6"/>
			<rect v:rectContext="textBkgnd" x="-51.8984" y="160.01" width="10.5664" height="12.0001" class="st8"/>
			<text x="-51.9" y="169.01" class="st9" v:langID="1049"><v:paragraph v:horizAlign="1"/><v:tabList/>2μ </text>		</g>
		<g id="shape18-77" v:mID="18" v:groupContext="shape" v:layerMember="0" transform="translate(511.556,-41.4774)">
			<title>Динамическая соединительная линия.18</title>
			<desc>2μ</desc>
			<v:textBlock v:margins="rect(4,4,4,4)" v:tabSpace="42.5197"/>
			<v:textRect cx="-47.1659" cy="166.577" width="50" height="20.0036"/>
			<path d="M0 146.73 C-0 157.36 -23.86 157.36 -47.72 157.36 C-66.25 157.36 -84.78 157.36 -92.13 152.38 L-92.32 152.07"
					class="st6"/>
			<rect v:rectContext="textBkgnd" x="-52.4491" y="160.577" width="10.5664" height="12.0001" class="st8"/>
			<text x="-52.45" y="169.58" class="st9" v:langID="1049"><v:paragraph v:horizAlign="1"/><v:tabList/>2μ </text>		</g>
		<g id="shape19-84" v:mID="19" v:groupContext="shape" v:layerMember="0" transform="translate(416.123,-55.6506)">
			<title>Динамическая соединительная линия.19</title>
			<desc>2μ</desc>
			<v:textBlock v:margins="rect(4,4,4,4)" v:tabSpace="42.5197"/>
			<v:textRect cx="-43.586" cy="183.585" width="50" height="20.0036"/>
			<path d="M0 160.91 C-0 171.54 -23.86 171.54 -47.72 171.54 C-66.25 171.54 -84.78 171.54 -92.13 166.55 L-92.32 166.24"
					class="st6"/>
			<rect v:rectContext="textBkgnd" x="-48.8691" y="177.585" width="10.5664" height="12.0001" class="st8"/>
			<text x="-48.87" y="186.58" class="st9" v:langID="1049"><v:paragraph v:horizAlign="1"/><v:tabList/>2μ </text>		</g>
		<g id="shape20-91" v:mID="20" v:groupContext="shape" v:layerMember="0" transform="translate(320.69,-41.4774)">
			<title>Динамическая соединительная линия.20</title>
			<desc>2μ</desc>
			<v:textBlock v:margins="rect(4,4,4,4)" v:tabSpace="42.5197"/>
			<v:textRect cx="-44.9631" cy="169.411" width="50" height="20.0036"/>
			<path d="M0 146.73 C0 157.36 -23.86 157.36 -47.72 157.36 C-66.25 157.36 -84.78 157.36 -92.13 152.38 L-92.32 152.07"
					class="st6"/>
			<rect v:rectContext="textBkgnd" x="-50.2462" y="163.412" width="10.5664" height="12.0001" class="st8"/>
			<text x="-50.25" y="172.41" class="st9" v:langID="1049"><v:paragraph v:horizAlign="1"/><v:tabList/>2μ </text>		</g>
		<g id="shape21-98" v:mID="21" v:groupContext="shape" v:layerMember="0" transform="translate(225.257,-41.4774)">
			<title>Динамическая соединительная линия.21</title>
			<desc>2μ</desc>
			<v:textBlock v:margins="rect(4,4,4,4)" v:tabSpace="42.5197"/>
			<v:textRect cx="-48.8178" cy="169.411" width="50" height="20.0036"/>
			<path d="M0 146.73 C0 157.36 -23.86 157.36 -47.72 157.36 C-66.25 157.36 -84.78 157.36 -92.13 152.38 L-92.32 152.07"
					class="st6"/>
			<rect v:rectContext="textBkgnd" x="-54.1009" y="163.412" width="10.5664" height="12.0001" class="st8"/>
			<text x="-54.1" y="172.41" class="st9" v:langID="1049"><v:paragraph v:horizAlign="1"/><v:tabList/>2μ </text>		</g>
		<g id="shape30-105" v:mID="30" v:groupContext="shape" v:layerMember="0;1" transform="translate(11.7136,-48.564)">
			<title>Ссылка на текущую страницу.30</title>
			<desc>S0</desc>
			<v:userDefs>
				<v:ud v:nameU="visVersion" v:prompt="" v:val="VT0(15):26"/>
			</v:userDefs>
			<v:textBlock v:margins="rect(2,2,2,2)" v:tabSpace="42.5197"/>
			<v:textRect cx="22.6772" cy="131.144" width="45.36" height="45.3543"/>
			<path d="M0 131.14 A22.6772 22.6772 0 0 1 45.35 131.14 A22.6772 22.6772 0 1 1 0 131.14 Z" class="st2"/>
			<text x="15.58" y="136.54" class="st4" v:langID="1033"><v:paragraph v:horizAlign="1"/><v:tabList/>S<tspan dy="-0.284em"
						class="st5" v:langID="1049" v:baseFontSize="18">0</tspan></text>		</g>
		<g id="shape31-110" v:mID="31" v:groupContext="shape" v:layerMember="0" transform="translate(34.3907,-86.8317)">
			<title>Динамическая соединительная линия.31</title>
			<desc>λ</desc>
			<v:textBlock v:margins="rect(4,4,4,4)" v:tabSpace="42.5197"/>
			<v:textRect cx="49.6063" cy="125.474" width="50" height="20.0036"/>
			<path d="M0 146.73 C-0 136.1 23.86 136.1 47.72 136.1 C66.25 136.1 84.78 136.1 92.13 141.09 L92.32 141.4" class="st6"/>
			<rect v:rectContext="textBkgnd" x="47.292" y="119.475" width="4.62881" height="12.0001" class="st8"/>
			<text x="47.29" y="128.47" class="st9" v:langID="1049"><v:paragraph v:horizAlign="1"/><v:tabList/>λ </text>		</g>
		<g id="shape32-117" v:mID="32" v:groupContext="shape" v:layerMember="0" transform="translate(129.824,-41.4774)">
			<title>Динамическая соединительная линия.32</title>
			<desc>μ</desc>
			<v:textBlock v:margins="rect(4,4,4,4)" v:tabSpace="42.5197"/>
			<v:textRect cx="-48.9449" cy="168.844" width="50" height="20.0036"/>
			<path d="M0 146.73 C-0 157.36 -23.86 157.36 -47.72 157.36 C-66.25 157.36 -84.78 157.36 -92.13 152.38 L-92.32 152.07"
					class="st6"/>
			<rect v:rectContext="textBkgnd" x="-51.694" y="162.845" width="5.49811" height="12.0001" class="st8"/>
			<text x="-51.69" y="171.84" class="st9" v:langID="1049"><v:paragraph v:horizAlign="1"/><v:tabList/>μ </text>		</g>
	</g>
</svg>
