<?xml version="1.0" encoding="UTF-8" standalone="no"?>
<!DOCTYPE svg PUBLIC "-//W3C//DTD SVG 1.1//EN" "http://www.w3.org/Graphics/SVG/1.1/DTD/svg11.dtd">
<!-- Создано Microsoft Visio, экспорт SVG States graph.svg Страница-1 -->
<svg xmlns="http://www.w3.org/2000/svg" xmlns:xlink="http://www.w3.org/1999/xlink" xmlns:ev="http://www.w3.org/2001/xml-events"
		xmlns:v="http://schemas.microsoft.com/visio/2003/SVGExtensions/" width="7.09703in" height="4.00541in"
		viewBox="0 0 510.986 288.389" xml:space="preserve" color-interpolation-filters="sRGB" class="st11">
	<v:documentProperties v:langID="1049" v:metric="true" v:viewMarkup="false"/>

	<style type="text/css">
	<![CDATA[
		.st1 {fill:#ffffff;stroke:none;stroke-linecap:round;stroke-linejoin:round;stroke-width:0.75}
		.st2 {fill:#ffffff;stroke:#000000;stroke-linecap:round;stroke-linejoin:round;stroke-width:0.24}
		.st3 {fill:#000000;font-family:Calibri;font-size:1.5em}
		.st4 {baseline-shift:-32.4951%;font-size:0.649902em}
		.st5 {marker-end:url(#mrkr4-24);stroke:#000000;stroke-linecap:round;stroke-linejoin:round;stroke-width:0.75}
		.st6 {fill:#000000;fill-opacity:1;stroke:#000000;stroke-opacity:1;stroke-width:0.22935779816514}
		.st7 {fill:#ffffff;stroke:none;stroke-linecap:butt;stroke-width:7.2}
		.st8 {fill:#000000;font-family:Calibri;font-size:0.666664em}
		.st9 {marker-end:url(#mrkr4-67);stroke:#000000;stroke-linecap:round;stroke-linejoin:round;stroke-width:0.75}
		.st10 {fill:#ffffff;stroke:none;stroke-linecap:butt}
		.st11 {fill:none;fill-rule:evenodd;font-size:12px;overflow:visible;stroke-linecap:square;stroke-miterlimit:3}
	]]>
	</style>

	<defs id="Markers">
		<g id="lend4">
			<path d="M 2 1 L 0 0 L 2 -1 L 2 1 " style="stroke:none"/>
		</g>
		<marker id="mrkr4-24" class="st6" v:arrowType="4" v:arrowSize="2" v:setback="8.72" refX="-8.72" orient="auto"
				markerUnits="strokeWidth" overflow="visible">
			<use xlink:href="#lend4" transform="scale(-4.36,-4.36) "/>
		</marker>
		<marker id="mrkr4-67" class="st6" v:arrowType="4" v:arrowSize="2" v:setback="8.24" refX="-8.24" orient="auto"
				markerUnits="strokeWidth" overflow="visible">
			<use xlink:href="#lend4" transform="scale(-4.36,-4.36) "/>
		</marker>
	</defs>
	<g v:mID="0" v:index="1" v:groupContext="foregroundPage">
		<title>Страница-1</title>
		<v:pageProperties v:drawingScale="0.0393701" v:pageScale="0.0393701" v:drawingUnits="24" v:shadowOffsetX="8.50394"
				v:shadowOffsetY="-8.50394"/>
		<v:layer v:name="Соединительная линия" v:index="0"/>
		<v:layer v:name="Блок-схема" v:index="1"/>
		<g id="shape20-1" v:mID="20" v:groupContext="shape" transform="translate(0.375,-0.375)">
			<title>Лист.20</title>
			<rect x="0" y="1.66497" width="510.236" height="286.724" class="st1"/>
		</g>
		<g id="shape1-3" v:mID="1" v:groupContext="shape" v:layerMember="0;1" transform="translate(49.9813,-129.351)">
			<title>Ссылка на текущую страницу</title>
			<desc>S1</desc>
			<v:userDefs>
				<v:ud v:nameU="visVersion" v:prompt="" v:val="VT0(15):26"/>
			</v:userDefs>
			<v:textBlock v:margins="rect(2,2,2,2)" v:tabSpace="42.5197"/>
			<v:textRect cx="22.6772" cy="265.712" width="45.36" height="45.3543"/>
			<path d="M0 265.71 A22.6772 22.6772 0 0 1 45.35 265.71 A22.6772 22.6772 0 1 1 0 265.71 Z" class="st2"/>
			<text x="15.58" y="271.11" class="st3" v:langID="1033"><v:paragraph v:horizAlign="1"/><v:tabList/>S<tspan dy="-0.284em"
						class="st4" v:baseFontSize="18">1</tspan></text>		</g>
		<g id="shape6-7" v:mID="6" v:groupContext="shape" v:layerMember="0;1" transform="translate(225.729,-211.556)">
			<title>Ссылка на текущую страницу.6</title>
			<desc>S2</desc>
			<v:userDefs>
				<v:ud v:nameU="visVersion" v:prompt="" v:val="VT0(15):26"/>
			</v:userDefs>
			<v:textBlock v:margins="rect(2,2,2,2)" v:tabSpace="42.5197"/>
			<v:textRect cx="22.6772" cy="265.712" width="45.36" height="45.3543"/>
			<path d="M0 265.71 A22.6772 22.6772 0 0 1 45.35 265.71 A22.6772 22.6772 0 1 1 0 265.71 Z" class="st2"/>
			<text x="15.58" y="271.11" class="st3" v:langID="1033"><v:paragraph v:horizAlign="1"/><v:tabList/>S<tspan dy="-0.284em"
						class="st4" v:baseFontSize="18">2</tspan></text>		</g>
		<g id="shape7-11" v:mID="7" v:groupContext="shape" v:layerMember="0;1" transform="translate(305.099,-129.351)">
			<title>Ссылка на текущую страницу.7</title>
			<desc>S3</desc>
			<v:userDefs>
				<v:ud v:nameU="visVersion" v:prompt="" v:val="VT0(15):26"/>
			</v:userDefs>
			<v:textBlock v:margins="rect(2,2,2,2)" v:tabSpace="42.5197"/>
			<v:textRect cx="22.6772" cy="265.712" width="45.36" height="45.3543"/>
			<path d="M0 265.71 A22.6772 22.6772 0 0 1 45.35 265.71 A22.6772 22.6772 0 1 1 0 265.71 Z" class="st2"/>
			<text x="15.58" y="271.11" class="st3" v:langID="1033"><v:paragraph v:horizAlign="1"/><v:tabList/>S<tspan dy="-0.284em"
						class="st4" v:baseFontSize="18">3</tspan></text>		</g>
		<g id="shape8-15" v:mID="8" v:groupContext="shape" v:layerMember="0;1" transform="translate(409.981,-41.4774)">
			<title>Ссылка на текущую страницу.8</title>
			<desc>S4</desc>
			<v:userDefs>
				<v:ud v:nameU="visVersion" v:prompt="" v:val="VT0(15):26"/>
			</v:userDefs>
			<v:textBlock v:margins="rect(2,2,2,2)" v:tabSpace="42.5197"/>
			<v:textRect cx="22.6772" cy="265.712" width="45.36" height="45.3543"/>
			<path d="M0 265.71 A22.6772 22.6772 0 0 1 45.35 265.71 A22.6772 22.6772 0 1 1 0 265.71 Z" class="st2"/>
			<text x="15.58" y="271.11" class="st3" v:langID="1033"><v:paragraph v:horizAlign="1"/><v:tabList/>S<tspan dy="-0.284em"
						class="st4" v:baseFontSize="18">4</tspan></text>		</g>
		<g id="shape9-19" v:mID="9" v:groupContext="shape" v:layerMember="0" transform="translate(72.6585,-174.706)">
			<title>Динамическая соединительная линия</title>
			<desc>0.2401275</desc>
			<v:textBlock v:margins="rect(4,4,4,4)" v:tabSpace="42.5197"/>
			<v:textRect cx="48.189" cy="221.775" width="44.28" height="17.6036"/>
			<path d="M0 288.39 L0 228.86 L146.53 228.86" class="st5"/>
			<rect v:rectContext="textBkgnd" x="30.9602" y="216.975" width="34.4578" height="9.59985" class="st7"/>
			<text x="30.96" y="224.18" class="st8" v:langID="1049"><v:paragraph v:horizAlign="1"/><v:tabList/>0.2401275</text>		</g>
		<g id="shape10-27" v:mID="10" v:groupContext="shape" v:layerMember="0" transform="translate(95.3356,-144.942)">
			<title>Динамическая соединительная линия.10</title>
			<desc>0.07038554</desc>
			<v:textBlock v:margins="rect(4,4,4,4)" v:tabSpace="42.5197"/>
			<v:textRect cx="103.465" cy="269.964" width="48.33" height="17.6036"/>
			<path d="M0 281.3 L203.22 281.3" class="st5"/>
			<rect v:rectContext="textBkgnd" x="84.2084" y="265.164" width="38.5126" height="9.59985" class="st7"/>
			<text x="84.21" y="272.36" class="st8" v:langID="1049"><v:paragraph v:horizAlign="1"/><v:tabList/>0.07038554</text>		</g>
		<g id="shape11-34" v:mID="11" v:groupContext="shape" v:layerMember="0" transform="translate(72.6585,-129.351)">
			<title>Динамическая соединительная линия.11</title>
			<desc>0.3953102</desc>
			<v:textBlock v:margins="rect(4,4,4,4)" v:tabSpace="42.5197"/>
			<v:textRect cx="133.228" cy="346.5" width="44.28" height="17.6036"/>
			<path d="M0 288.39 L0 353.59 L330.78 353.59" class="st5"/>
			<rect v:rectContext="textBkgnd" x="116" y="341.7" width="34.4578" height="9.59985" class="st7"/>
			<text x="116" y="348.9" class="st8" v:langID="1049"><v:paragraph v:horizAlign="1"/><v:tabList/>0.3953102</text>		</g>
		<g id="shape12-41" v:mID="12" v:groupContext="shape" v:layerMember="0" transform="translate(271.084,-234.233)">
			<title>Динамическая соединительная линия.12</title>
			<desc>0.4372574</desc>
			<v:textBlock v:margins="rect(4,4,4,4)" v:tabSpace="42.5197"/>
			<v:textRect cx="144" cy="278.468" width="44.28" height="17.6036"/>
			<path d="M0 288.39 L194.88 288.39 L194.88 458.47 L190.79 458.47" class="st5"/>
			<rect v:rectContext="textBkgnd" x="126.771" y="273.668" width="34.4578" height="9.59985" class="st7"/>
			<text x="126.77" y="280.87" class="st8" v:langID="1049"><v:paragraph v:horizAlign="1"/><v:tabList/>0.4372574</text>		</g>
		<g id="shape13-48" v:mID="13" v:groupContext="shape" v:layerMember="0" transform="translate(248.406,-211.556)">
			<title>Динамическая соединительная линия.13</title>
			<desc>0.06776147</desc>
			<v:textBlock v:margins="rect(4,4,4,4)" v:tabSpace="42.5197"/>
			<v:textRect cx="52.4409" cy="289.807" width="48.33" height="17.6036"/>
			<path d="M0 288.39 L0 299.02 L79.37 299.02 L79.37 318.7" class="st5"/>
			<rect v:rectContext="textBkgnd" x="33.1848" y="285.007" width="38.5126" height="9.59985" class="st7"/>
			<text x="33.18" y="292.21" class="st8" v:langID="1049"><v:paragraph v:horizAlign="1"/><v:tabList/>0.06776147</text>		</g>
		<g id="shape14-55" v:mID="14" v:groupContext="shape" v:layerMember="0" transform="translate(350.454,-152.029)">
			<title>Динамическая соединительная линия.14</title>
			<desc>0.5402579</desc>
			<v:textBlock v:margins="rect(4,4,4,4)" v:tabSpace="42.5197"/>
			<v:textRect cx="50.4567" cy="279.885" width="44.28" height="17.6036"/>
			<path d="M0 288.39 L82.2 288.39 L82.2 347.05" class="st5"/>
			<rect v:rectContext="textBkgnd" x="33.2279" y="275.086" width="34.4578" height="9.59985" class="st7"/>
			<text x="33.23" y="282.29" class="st8" v:langID="1049"><v:paragraph v:horizAlign="1"/><v:tabList/>0.5402579</text>		</g>
		<g id="shape16-62" v:mID="16" v:groupContext="shape" v:layerMember="0" transform="translate(42.8947,-144.942)">
			<title>Динамическая соединительная линия.16</title>
			<desc>0.2941768</desc>
			<v:textBlock v:margins="rect(4,4,4,4)" v:tabSpace="42.5197"/>
			<v:textRect cx="-14.1732" cy="298.311" width="44.28" height="17.6036"/>
			<path d="M7.09 281.3 C-14.05 310.36 -19.18 263.11 2.01 277.18 L2.29 277.41" class="st9"/>
			<rect v:rectContext="textBkgnd" x="-31.402" y="293.511" width="34.4578" height="9.59985" class="st7"/>
			<text x="-31.4" y="300.71" class="st8" v:langID="1049"><v:paragraph v:horizAlign="1"/><v:tabList/>0.2941768</text>		</g>
		<g id="shape17-70" v:mID="17" v:groupContext="shape" v:layerMember="0" transform="translate(425.572,-34.3907)">
			<title>Динамическая соединительная линия.17</title>
			<desc>1</desc>
			<v:textBlock v:margins="rect(4,4,4,4)" v:tabSpace="42.5197"/>
			<v:textRect cx="7.08661" cy="303.98" width="40" height="17.6036"/>
			<path d="M7.09 281.3 C-24.81 301.24 33.04 303.73 12.3 285.25 L12.01 285.04" class="st9"/>
			<rect v:rectContext="textBkgnd" x="5.05914" y="299.18" width="4.05478" height="9.59985" class="st10"/>
			<text x="5.06" y="306.38" class="st8" v:langID="1049"><v:paragraph v:horizAlign="1"/><v:tabList/>1</text>		</g>
		<g id="shape18-77" v:mID="18" v:groupContext="shape" v:layerMember="0" transform="translate(241.32,-249.824)">
			<title>Динамическая соединительная линия.18</title>
			<desc>0.4949811</desc>
			<v:textBlock v:margins="rect(4,4,4,4)" v:tabSpace="42.5197"/>
			<v:textRect cx="7.0866" cy="258.626" width="44.28" height="17.6036"/>
			<path d="M7.09 281.3 C33.46 260.2 -16.23 261.19 1.83 277.41 L2.12 277.62" class="st9"/>
			<rect v:rectContext="textBkgnd" x="-10.1422" y="253.826" width="34.4578" height="9.59985" class="st7"/>
			<text x="-10.14" y="261.03" class="st8" v:langID="1049"><v:paragraph v:horizAlign="1"/><v:tabList/>0.4949811</text>		</g>
		<g id="shape19-84" v:mID="19" v:groupContext="shape" v:layerMember="0" transform="translate(320.69,-122.265)">
			<title>Динамическая соединительная линия.19</title>
			<desc>0.45974212</desc>
			<v:textBlock v:margins="rect(4,4,4,4)" v:tabSpace="42.5197"/>
			<v:textRect cx="5.66929" cy="308.232" width="48.33" height="17.6036"/>
			<path d="M7.09 281.3 C-20.67 302.45 26.76 306.84 11.45 286.18 L11.21 285.91" class="st9"/>
			<rect v:rectContext="textBkgnd" x="-13.5869" y="303.432" width="38.5126" height="9.59985" class="st7"/>
			<text x="-13.59" y="310.63" class="st8" v:langID="1049"><v:paragraph v:horizAlign="1"/><v:tabList/>0.45974212</text>		</g>
	</g>
</svg>
