<?xml version="1.0" encoding="UTF-8" standalone="no"?>
<!DOCTYPE svg PUBLIC "-//W3C//DTD SVG 1.1//EN" "http://www.w3.org/Graphics/SVG/1.1/DTD/svg11.dtd">
<!-- Создано Microsoft Visio, экспорт SVG Граф состояний.svg Page-1 -->
<svg xmlns="http://www.w3.org/2000/svg" xmlns:xlink="http://www.w3.org/1999/xlink" xmlns:ev="http://www.w3.org/2001/xml-events"
		xmlns:v="http://schemas.microsoft.com/visio/2003/SVGExtensions/" width="11.6929in" height="8.26772in"
		viewBox="0 0 841.89 595.276" xml:space="preserve" color-interpolation-filters="sRGB" class="st11">
	<v:documentProperties v:langID="1049" v:metric="true" v:viewMarkup="false">
		<v:userDefs>
			<v:ud v:nameU="msvNoAutoConnect" v:val="VT0(1):26"/>
		</v:userDefs>
	</v:documentProperties>

	<style type="text/css">
	<![CDATA[
		.st1 {fill:#ffffff;stroke:none;stroke-linecap:round;stroke-linejoin:round;stroke-width:0.75}
		.st2 {fill:#ffffff;stroke:#000000;stroke-linecap:round;stroke-linejoin:round;stroke-width:0.24}
		.st3 {fill:#000000;font-family:Calibri;font-size:1.5em}
		.st4 {baseline-shift:-32.4951%;font-size:0.649902em}
		.st5 {marker-end:url(#mrkr4-24);stroke:#000000;stroke-linecap:round;stroke-linejoin:round;stroke-width:0.75}
		.st6 {fill:#000000;fill-opacity:1;stroke:#000000;stroke-opacity:1;stroke-width:0.22935779816514}
		.st7 {fill:#ffffff;stroke:none;stroke-linecap:butt;stroke-width:7.2}
		.st8 {fill:#000000;font-family:Calibri;font-size:0.666664em}
		.st9 {marker-end:url(#mrkr4-67);stroke:#000000;stroke-linecap:round;stroke-linejoin:round;stroke-width:0.75}
		.st10 {fill:#ffffff;stroke:none;stroke-linecap:butt}
		.st11 {fill:none;fill-rule:evenodd;font-size:12px;overflow:visible;stroke-linecap:square;stroke-miterlimit:3}
	]]>
	</style>

	<defs id="Markers">
		<g id="lend4">
			<path d="M 2 1 L 0 0 L 2 -1 L 2 1 " style="stroke:none"/>
		</g>
		<marker id="mrkr4-24" class="st6" v:arrowType="4" v:arrowSize="2" v:setback="8.72" refX="-8.72" orient="auto"
				markerUnits="strokeWidth" overflow="visible">
			<use xlink:href="#lend4" transform="scale(-4.36,-4.36) "/>
		</marker>
		<marker id="mrkr4-67" class="st6" v:arrowType="4" v:arrowSize="2" v:setback="8.24" refX="-8.24" orient="auto"
				markerUnits="strokeWidth" overflow="visible">
			<use xlink:href="#lend4" transform="scale(-4.36,-4.36) "/>
		</marker>
	</defs>
	<g v:mID="0" v:index="1" v:groupContext="foregroundPage">
		<title>Страница-1</title>
		<v:pageProperties v:drawingScale="0.0393701" v:pageScale="0.0393701" v:drawingUnits="24" v:shadowOffsetX="8.50394"
				v:shadowOffsetY="-8.50394"/>
		<v:layer v:name="Соединительная линия" v:index="0"/>
		<v:layer v:name="Блок-схема" v:index="1"/>
		<g id="shape20-1" v:mID="20" v:groupContext="shape" transform="translate(35.4331,-290.551)">
			<title>Лист.20</title>
			<rect x="0" y="308.551" width="510.236" height="286.724" class="st1"/>
		</g>
		<g id="shape1-3" v:mID="1" v:groupContext="shape" v:layerMember="0;1" transform="translate(85.0394,-419.528)">
			<title>Ссылка на текущую страницу</title>
			<desc>S1</desc>
			<v:userDefs>
				<v:ud v:nameU="visVersion" v:prompt="" v:val="VT0(15):26"/>
			</v:userDefs>
			<v:textBlock v:margins="rect(2,2,2,2)" v:tabSpace="42.5197"/>
			<v:textRect cx="22.6772" cy="572.598" width="45.36" height="45.3543"/>
			<path d="M0 572.6 A22.6772 22.6772 0 0 1 45.35 572.6 A22.6772 22.6772 0 1 1 0 572.6 Z" class="st2"/>
			<text x="15.58" y="578" class="st3" v:langID="1033"><v:paragraph v:horizAlign="1"/><v:tabList/>S<tspan dy="-0.284em"
						class="st4" v:baseFontSize="18">1</tspan></text>		</g>
		<g id="shape6-7" v:mID="6" v:groupContext="shape" v:layerMember="0;1" transform="translate(260.787,-501.732)">
			<title>Ссылка на текущую страницу.6</title>
			<desc>S2</desc>
			<v:userDefs>
				<v:ud v:nameU="visVersion" v:prompt="" v:val="VT0(15):26"/>
			</v:userDefs>
			<v:textBlock v:margins="rect(2,2,2,2)" v:tabSpace="42.5197"/>
			<v:textRect cx="22.6772" cy="572.598" width="45.36" height="45.3543"/>
			<path d="M0 572.6 A22.6772 22.6772 0 0 1 45.35 572.6 A22.6772 22.6772 0 1 1 0 572.6 Z" class="st2"/>
			<text x="15.58" y="578" class="st3" v:langID="1033"><v:paragraph v:horizAlign="1"/><v:tabList/>S<tspan dy="-0.284em"
						class="st4" v:baseFontSize="18">2</tspan></text>		</g>
		<g id="shape7-11" v:mID="7" v:groupContext="shape" v:layerMember="0;1" transform="translate(340.157,-419.528)">
			<title>Ссылка на текущую страницу.7</title>
			<desc>S3</desc>
			<v:userDefs>
				<v:ud v:nameU="visVersion" v:prompt="" v:val="VT0(15):26"/>
			</v:userDefs>
			<v:textBlock v:margins="rect(2,2,2,2)" v:tabSpace="42.5197"/>
			<v:textRect cx="22.6772" cy="572.598" width="45.36" height="45.3543"/>
			<path d="M0 572.6 A22.6772 22.6772 0 0 1 45.35 572.6 A22.6772 22.6772 0 1 1 0 572.6 Z" class="st2"/>
			<text x="15.58" y="578" class="st3" v:langID="1033"><v:paragraph v:horizAlign="1"/><v:tabList/>S<tspan dy="-0.284em"
						class="st4" v:baseFontSize="18">3</tspan></text>		</g>
		<g id="shape8-15" v:mID="8" v:groupContext="shape" v:layerMember="0;1" transform="translate(445.039,-331.654)">
			<title>Ссылка на текущую страницу.8</title>
			<desc>S4</desc>
			<v:userDefs>
				<v:ud v:nameU="visVersion" v:prompt="" v:val="VT0(15):26"/>
			</v:userDefs>
			<v:textBlock v:margins="rect(2,2,2,2)" v:tabSpace="42.5197"/>
			<v:textRect cx="22.6772" cy="572.598" width="45.36" height="45.3543"/>
			<path d="M0 572.6 A22.6772 22.6772 0 0 1 45.35 572.6 A22.6772 22.6772 0 1 1 0 572.6 Z" class="st2"/>
			<text x="15.58" y="578" class="st3" v:langID="1033"><v:paragraph v:horizAlign="1"/><v:tabList/>S<tspan dy="-0.284em"
						class="st4" v:baseFontSize="18">4</tspan></text>		</g>
		<g id="shape9-19" v:mID="9" v:groupContext="shape" v:layerMember="0" transform="translate(107.717,-464.882)">
			<title>Динамическая соединительная линия</title>
			<desc>0.2401275</desc>
			<v:textBlock v:margins="rect(4,4,4,4)" v:tabSpace="42.5197"/>
			<v:textRect cx="48.189" cy="528.661" width="44.28" height="17.6036"/>
			<path d="M0 595.28 L0 535.75 L146.53 535.75" class="st5"/>
			<rect v:rectContext="textBkgnd" x="30.9602" y="523.862" width="34.4578" height="9.59985" class="st7"/>
			<text x="30.96" y="531.06" class="st8" v:langID="1049"><v:paragraph v:horizAlign="1"/><v:tabList/>0.2401275</text>		</g>
		<g id="shape10-27" v:mID="10" v:groupContext="shape" v:layerMember="0" transform="translate(130.394,-435.118)">
			<title>Динамическая соединительная линия.10</title>
			<desc>0.07038554</desc>
			<v:textBlock v:margins="rect(4,4,4,4)" v:tabSpace="42.5197"/>
			<v:textRect cx="103.465" cy="576.85" width="48.33" height="17.6036"/>
			<path d="M0 588.19 L203.22 588.19" class="st5"/>
			<rect v:rectContext="textBkgnd" x="84.2084" y="572.051" width="38.5126" height="9.59985" class="st7"/>
			<text x="84.21" y="579.25" class="st8" v:langID="1049"><v:paragraph v:horizAlign="1"/><v:tabList/>0.07038554</text>		</g>
		<g id="shape11-34" v:mID="11" v:groupContext="shape" v:layerMember="0" transform="translate(107.717,-419.528)">
			<title>Динамическая соединительная линия.11</title>
			<desc>0.3953102</desc>
			<v:textBlock v:margins="rect(4,4,4,4)" v:tabSpace="42.5197"/>
			<v:textRect cx="133.228" cy="653.386" width="44.28" height="17.6036"/>
			<path d="M0 595.28 L0 660.47 L330.78 660.47" class="st5"/>
			<rect v:rectContext="textBkgnd" x="116" y="648.586" width="34.4578" height="9.59985" class="st7"/>
			<text x="116" y="655.79" class="st8" v:langID="1049"><v:paragraph v:horizAlign="1"/><v:tabList/>0.3953102</text>		</g>
		<g id="shape12-41" v:mID="12" v:groupContext="shape" v:layerMember="0" transform="translate(306.142,-524.409)">
			<title>Динамическая соединительная линия.12</title>
			<desc>0.4372574</desc>
			<v:textBlock v:margins="rect(4,4,4,4)" v:tabSpace="42.5197"/>
			<v:textRect cx="144" cy="585.354" width="44.28" height="17.6036"/>
			<path d="M0 595.28 L194.88 595.28 L194.88 765.35 L190.79 765.35" class="st5"/>
			<rect v:rectContext="textBkgnd" x="126.771" y="580.555" width="34.4578" height="9.59985" class="st7"/>
			<text x="126.77" y="587.75" class="st8" v:langID="1049"><v:paragraph v:horizAlign="1"/><v:tabList/>0.4372574</text>		</g>
		<g id="shape13-48" v:mID="13" v:groupContext="shape" v:layerMember="0" transform="translate(283.465,-501.732)">
			<title>Динамическая соединительная линия.13</title>
			<desc>0.06776147</desc>
			<v:textBlock v:margins="rect(4,4,4,4)" v:tabSpace="42.5197"/>
			<v:textRect cx="52.4409" cy="596.693" width="48.33" height="17.6036"/>
			<path d="M0 595.28 L0 605.91 L79.37 605.91 L79.37 625.59" class="st5"/>
			<rect v:rectContext="textBkgnd" x="33.1848" y="591.893" width="38.5126" height="9.59985" class="st7"/>
			<text x="33.18" y="599.09" class="st8" v:langID="1049"><v:paragraph v:horizAlign="1"/><v:tabList/>0.06776147</text>		</g>
		<g id="shape14-55" v:mID="14" v:groupContext="shape" v:layerMember="0" transform="translate(385.512,-442.205)">
			<title>Динамическая соединительная линия.14</title>
			<desc>0.5402579</desc>
			<v:textBlock v:margins="rect(4,4,4,4)" v:tabSpace="42.5197"/>
			<v:textRect cx="50.4567" cy="586.772" width="44.28" height="17.6036"/>
			<path d="M0 595.28 L82.2 595.28 L82.2 653.93" class="st5"/>
			<rect v:rectContext="textBkgnd" x="33.2279" y="581.972" width="34.4578" height="9.59985" class="st7"/>
			<text x="33.23" y="589.17" class="st8" v:langID="1049"><v:paragraph v:horizAlign="1"/><v:tabList/>0.5402579</text>		</g>
		<g id="shape16-62" v:mID="16" v:groupContext="shape" v:layerMember="0" transform="translate(77.9528,-435.118)">
			<title>Динамическая соединительная линия.16</title>
			<desc>0.2941768</desc>
			<v:textBlock v:margins="rect(4,4,4,4)" v:tabSpace="42.5197"/>
			<v:textRect cx="-14.1732" cy="605.197" width="44.28" height="17.6036"/>
			<path d="M7.09 588.19 C-14.05 617.24 -19.18 570 2.01 584.06 L2.29 584.29" class="st9"/>
			<rect v:rectContext="textBkgnd" x="-31.402" y="600.397" width="34.4578" height="9.59985" class="st7"/>
			<text x="-31.4" y="607.6" class="st8" v:langID="1049"><v:paragraph v:horizAlign="1"/><v:tabList/>0.2941768</text>		</g>
		<g id="shape17-70" v:mID="17" v:groupContext="shape" v:layerMember="0" transform="translate(460.63,-324.567)">
			<title>Динамическая соединительная линия.17</title>
			<desc>1</desc>
			<v:textBlock v:margins="rect(4,4,4,4)" v:tabSpace="42.5197"/>
			<v:textRect cx="7.08661" cy="610.866" width="40" height="17.6036"/>
			<path d="M7.09 588.19 C-24.81 608.13 33.04 610.61 12.3 592.14 L12.01 591.92" class="st9"/>
			<rect v:rectContext="textBkgnd" x="5.05915" y="606.066" width="4.05478" height="9.59985" class="st7"/>
			<text x="5.06" y="613.27" class="st8" v:langID="1049"><v:paragraph v:horizAlign="1"/><v:tabList/>1</text>		</g>
		<g id="shape18-77" v:mID="18" v:groupContext="shape" v:layerMember="0" transform="translate(276.378,-540)">
			<title>Динамическая соединительная линия.18</title>
			<desc>0.4949811</desc>
			<v:textBlock v:margins="rect(4,4,4,4)" v:tabSpace="42.5197"/>
			<v:textRect cx="7.08661" cy="565.512" width="44.28" height="17.6036"/>
			<path d="M7.09 588.19 C33.46 567.09 -16.23 568.08 1.83 584.29 L2.12 584.51" class="st9"/>
			<rect v:rectContext="textBkgnd" x="-10.1422" y="560.712" width="34.4578" height="9.59985" class="st10"/>
			<text x="-10.14" y="567.91" class="st8" v:langID="1049"><v:paragraph v:horizAlign="1"/><v:tabList/>0.4949811</text>		</g>
		<g id="shape19-84" v:mID="19" v:groupContext="shape" v:layerMember="0" transform="translate(355.748,-412.441)">
			<title>Динамическая соединительная линия.19</title>
			<desc>0.45974212</desc>
			<v:textBlock v:margins="rect(4,4,4,4)" v:tabSpace="42.5197"/>
			<v:textRect cx="5.66929" cy="615.118" width="48.33" height="17.6036"/>
			<path d="M7.09 588.19 C-20.67 609.34 26.76 613.72 11.45 593.06 L11.21 592.8" class="st9"/>
			<rect v:rectContext="textBkgnd" x="-13.5869" y="610.318" width="38.5126" height="9.59985" class="st7"/>
			<text x="-13.59" y="617.52" class="st8" v:langID="1049"><v:paragraph v:horizAlign="1"/><v:tabList/>0.45974212</text>		</g>
	</g>
</svg>
