<?xml version="1.0" encoding="UTF-8" standalone="no"?>
<!DOCTYPE svg PUBLIC "-//W3C//DTD SVG 1.1//EN" "http://www.w3.org/Graphics/SVG/1.1/DTD/svg11.dtd">
<!-- Создано Microsoft Visio, экспорт SVG System 2.svg Страница-1 -->
<svg xmlns="http://www.w3.org/2000/svg" xmlns:xlink="http://www.w3.org/1999/xlink" xmlns:ev="http://www.w3.org/2001/xml-events"
		xmlns:v="http://schemas.microsoft.com/visio/2003/SVGExtensions/" width="6.11455in" height="1.589in"
		viewBox="0 0 440.247 114.408" xml:space="preserve" color-interpolation-filters="sRGB" class="st11">
	<v:documentProperties v:langID="1049" v:metric="true" v:viewMarkup="false"/>

	<style type="text/css">
	<![CDATA[
		.st1 {fill:#ffffff;stroke:none;stroke-linecap:round;stroke-linejoin:round;stroke-width:0.75}
		.st2 {fill:#ffffff;stroke:#000000;stroke-linecap:round;stroke-linejoin:round;stroke-width:0.24}
		.st3 {fill:#000000;fill-opacity:1;stroke:#000000;stroke-opacity:1;stroke-width:0.08695652173913}
		.st4 {fill:#000000;font-family:Calibri;font-size:1.5em}
		.st5 {baseline-shift:-32.4951%;font-size:0.649902em}
		.st6 {marker-end:url(#mrkr4-29);stroke:#000000;stroke-linecap:round;stroke-linejoin:round;stroke-width:0.75}
		.st7 {fill:#000000;fill-opacity:1;stroke:#000000;stroke-opacity:1;stroke-width:0.22935779816514}
		.st8 {fill:#ffffff;stroke:none;stroke-linecap:butt;stroke-width:7.2}
		.st9 {fill:#000000;font-family:Calibri;font-size:0.833336em}
		.st10 {baseline-shift:-32.4947%;font-size:0.649894em}
		.st11 {fill:none;fill-rule:evenodd;font-size:12px;overflow:visible;stroke-linecap:square;stroke-miterlimit:3}
	]]>
	</style>

	<defs id="Markers">
		<g id="lend4">
			<path d="M 2 1 L 0 0 L 2 -1 L 2 1 " style="stroke:none"/>
		</g>
		<marker id="mrkr4-6" class="st3" v:arrowType="4" v:arrowSize="2" v:setback="23" refX="-23" orient="auto"
				markerUnits="strokeWidth" overflow="visible">
			<use xlink:href="#lend4" transform="scale(-11.5,-11.5) "/>
		</marker>
		<marker id="mrkr4-29" class="st7" v:arrowType="4" v:arrowSize="2" v:setback="8.24" refX="-8.24" orient="auto"
				markerUnits="strokeWidth" overflow="visible">
			<use xlink:href="#lend4" transform="scale(-4.36,-4.36) "/>
		</marker>
	</defs>
	<g v:mID="0" v:index="1" v:groupContext="foregroundPage">
		<title>Страница-1</title>
		<v:pageProperties v:drawingScale="0.0393701" v:pageScale="0.0393701" v:drawingUnits="24" v:shadowOffsetX="8.50394"
				v:shadowOffsetY="-8.50394"/>
		<v:layer v:name="Соединительная линия" v:index="0"/>
		<v:layer v:name="Блок-схема" v:index="1"/>
		<g id="shape21-1" v:mID="21" v:groupContext="shape" transform="translate(0.502256,-0.647487)">
			<title>Лист.21</title>
			<rect x="0" y="1.02248" width="439.37" height="113.386" class="st1"/>
		</g>
		<g id="shape1-3" v:mID="1" v:groupContext="shape" v:layerMember="0;1" transform="translate(101.605,-32.679)">
			<title>Ссылка на текущую страницу</title>
			<desc>S1</desc>
			<v:userDefs>
				<v:ud v:nameU="visVersion" v:prompt="" v:val="VT0(15):26"/>
			</v:userDefs>
			<v:textBlock v:margins="rect(2,2,2,2)" v:tabSpace="42.5197"/>
			<v:textRect cx="22.6772" cy="91.7311" width="45.36" height="45.3543"/>
			<path d="M0 91.73 A22.6772 22.6772 0 0 1 45.35 91.73 A22.6772 22.6772 0 1 1 0 91.73 Z" class="st2"/>
			<text x="15.58" y="97.13" class="st4" v:langID="1033"><v:paragraph v:horizAlign="1"/><v:tabList/>S<tspan dy="-0.284em"
						class="st5" v:baseFontSize="18">1</tspan></text>		</g>
		<g id="shape2-9" v:mID="2" v:groupContext="shape" v:layerMember="0;1" transform="translate(197.038,-32.679)">
			<title>Ссылка на текущую страницу.6</title>
			<desc>S2</desc>
			<v:userDefs>
				<v:ud v:nameU="visVersion" v:prompt="" v:val="VT0(15):26"/>
			</v:userDefs>
			<v:textBlock v:margins="rect(2,2,2,2)" v:tabSpace="42.5197"/>
			<v:textRect cx="22.6772" cy="91.7311" width="45.36" height="45.3543"/>
			<path d="M0 91.73 A22.6772 22.6772 0 0 1 45.35 91.73 A22.6772 22.6772 0 1 1 0 91.73 Z" class="st2"/>
			<text x="15.58" y="97.13" class="st4" v:langID="1033"><v:paragraph v:horizAlign="1"/><v:tabList/>S<tspan dy="-0.284em"
						class="st5" v:baseFontSize="18">2</tspan></text>		</g>
		<g id="shape3-14" v:mID="3" v:groupContext="shape" v:layerMember="0;1" transform="translate(292.471,-32.679)">
			<title>Ссылка на текущую страницу.7</title>
			<desc>...</desc>
			<v:userDefs>
				<v:ud v:nameU="visVersion" v:prompt="" v:val="VT0(15):26"/>
			</v:userDefs>
			<v:textBlock v:margins="rect(2,2,2,2)" v:tabSpace="42.5197"/>
			<v:textRect cx="22.6772" cy="91.7311" width="45.36" height="45.3543"/>
			<path d="M0 91.73 A22.6772 22.6772 0 0 1 45.35 91.73 A22.6772 22.6772 0 1 1 0 91.73 Z" class="st2"/>
			<text x="15.86" y="97.13" class="st4" v:langID="1033"><v:paragraph v:horizAlign="1"/><v:tabList/>...</text>		</g>
		<g id="shape4-18" v:mID="4" v:groupContext="shape" v:layerMember="0;1" transform="translate(387.904,-32.679)">
			<title>Ссылка на текущую страницу.8</title>
			<desc>SLсист</desc>
			<v:userDefs>
				<v:ud v:nameU="visVersion" v:prompt="" v:val="VT0(15):26"/>
			</v:userDefs>
			<v:textBlock v:margins="rect(2,2,2,2)" v:tabSpace="42.5197"/>
			<v:textRect cx="22.6772" cy="91.7311" width="45.36" height="45.3543"/>
			<path d="M0 91.73 A22.6772 22.6772 0 0 1 45.35 91.73 A22.6772 22.6772 0 1 1 0 91.73 Z" class="st2"/>
			<text x="5.71" y="97.13" class="st4" v:langID="1033"><v:paragraph v:horizAlign="1"/><v:tabList/>S<tspan dy="-0.284em"
						class="st5" v:baseFontSize="18">L</tspan><tspan class="st5" v:langID="1049" v:baseFontSize="18">сист</tspan></text>		</g>
		<g id="shape5-24" v:mID="5" v:groupContext="shape" v:layerMember="0" transform="translate(124.282,-70.9467)">
			<title>Динамическая соединительная линия</title>
			<desc>ν1</desc>
			<v:textBlock v:margins="rect(4,4,4,4)" v:tabSpace="42.5197"/>
			<v:textRect cx="49.3684" cy="86.0619" width="50" height="20.0036"/>
			<path d="M0 107.32 C0 96.69 23.86 96.69 47.72 96.69 C66.25 96.69 84.78 96.69 92.13 101.68 L92.32 101.99" class="st6"/>
			<rect v:rectContext="textBkgnd" x="45.4779" y="80.0621" width="7.78134" height="12.5214" class="st8"/>
			<text x="45.48" y="89.06" class="st9" v:langID="1049"><v:paragraph v:horizAlign="1"/><v:tabList/>ν<tspan dy="-0.284em"
						class="st10" v:baseFontSize="10">1</tspan></text>		</g>
		<g id="shape6-33" v:mID="6" v:groupContext="shape" v:layerMember="0" transform="translate(219.715,-70.9467)">
			<title>Динамическая соединительная линия.6</title>
			<desc>ν2</desc>
			<v:textBlock v:margins="rect(4,4,4,4)" v:tabSpace="42.5197"/>
			<v:textRect cx="47.1659" cy="87.4792" width="50" height="20.0036"/>
			<path d="M0 107.32 C0 96.69 23.86 96.69 47.72 96.69 C66.25 96.69 84.78 96.69 92.13 101.68 L92.32 101.99" class="st6"/>
			<rect v:rectContext="textBkgnd" x="43.2753" y="81.4794" width="7.78134" height="12.5214" class="st8"/>
			<text x="43.28" y="90.48" class="st9" v:langID="1049"><v:paragraph v:horizAlign="1"/><v:tabList/>ν<tspan dy="-0.284em"
						class="st10" v:baseFontSize="10">2</tspan></text>		</g>
		<g id="shape7-41" v:mID="7" v:groupContext="shape" v:layerMember="0" transform="translate(315.148,-85.1199)">
			<title>Динамическая соединительная линия.14</title>
			<desc>νLсист - 1</desc>
			<v:textBlock v:margins="rect(4,4,4,4)" v:tabSpace="42.5197"/>
			<v:textRect cx="47.7165" cy="101.652" width="50" height="20.0036"/>
			<path d="M0 121.49 C0 110.87 23.86 110.87 47.72 110.87 C66.25 110.87 84.78 110.87 92.13 115.85 L92.32 116.16"
					class="st6"/>
			<rect v:rectContext="textBkgnd" x="34.233" y="95.6526" width="26.9673" height="12.5214" class="st8"/>
			<text x="34.23" y="104.65" class="st9" v:langID="1049"><v:paragraph v:horizAlign="1"/><v:tabList/>ν<tspan dy="-0.284em"
						class="st10" v:langID="1033" v:baseFontSize="10">L</tspan><tspan class="st10" v:baseFontSize="10">сист </tspan><tspan
						class="st10" v:baseFontSize="10">-</tspan><tspan class="st10" v:baseFontSize="10"> </tspan><tspan
						class="st10" v:baseFontSize="10">1</tspan></text>		</g>
		<g id="shape8-53" v:mID="8" v:groupContext="shape" v:layerMember="0" transform="translate(410.581,-25.5924)">
			<title>Динамическая соединительная линия.19</title>
			<desc>μLсист</desc>
			<v:textBlock v:margins="rect(4,4,4,4)" v:tabSpace="42.5197"/>
			<v:textRect cx="-43.586" cy="129.999" width="50" height="20.0036"/>
			<path d="M0 107.32 C0 117.95 -23.86 117.95 -47.72 117.95 C-66.25 117.95 -84.78 117.95 -92.13 112.97 L-92.32 112.66"
					class="st6"/>
			<rect v:rectContext="textBkgnd" x="-53.4641" y="123.999" width="19.7562" height="12.5214" class="st8"/>
			<text x="-53.46" y="133" class="st9" v:langID="1049"><v:paragraph v:horizAlign="1"/><v:tabList/>μ<tspan dy="-0.284em"
						class="st10" v:langID="1033" v:baseFontSize="10">L</tspan><tspan class="st10" v:baseFontSize="10">сист</tspan></text>		</g>
		<g id="shape9-62" v:mID="9" v:groupContext="shape" v:layerMember="0" transform="translate(315.148,-25.5924)">
			<title>Динамическая соединительная линия.20</title>
			<desc>μ3</desc>
			<v:textBlock v:margins="rect(4,4,4,4)" v:tabSpace="42.5197"/>
			<v:textRect cx="-44.9631" cy="129.999" width="50" height="20.0036"/>
			<path d="M0 107.32 C-0 117.95 -23.86 117.95 -47.72 117.95 C-66.25 117.95 -84.78 117.95 -92.13 112.97 L-92.32 112.66"
					class="st6"/>
			<rect v:rectContext="textBkgnd" x="-49.3591" y="123.999" width="8.79208" height="12.5214" class="st8"/>
			<text x="-49.36" y="133" class="st9" v:langID="1049"><v:paragraph v:horizAlign="1"/><v:tabList/>μ<tspan dy="-0.284em"
						class="st10" v:baseFontSize="10">3</tspan> </text>		</g>
		<g id="shape10-70" v:mID="10" v:groupContext="shape" v:layerMember="0" transform="translate(219.715,-25.5924)">
			<title>Динамическая соединительная линия.21</title>
			<desc>μ2</desc>
			<v:textBlock v:margins="rect(4,4,4,4)" v:tabSpace="42.5197"/>
			<v:textRect cx="-48.8178" cy="129.999" width="50" height="20.0036"/>
			<path d="M0 107.32 C-0 117.95 -23.86 117.95 -47.72 117.95 C-66.25 117.95 -84.78 117.95 -92.13 112.97 L-92.32 112.66"
					class="st6"/>
			<rect v:rectContext="textBkgnd" x="-53.2137" y="123.999" width="8.79208" height="12.5214" class="st8"/>
			<text x="-53.21" y="133" class="st9" v:langID="1049"><v:paragraph v:horizAlign="1"/><v:tabList/>μ<tspan dy="-0.284em"
						class="st10" v:baseFontSize="10">2</tspan> </text>		</g>
		<g id="shape11-78" v:mID="11" v:groupContext="shape" v:layerMember="0;1" transform="translate(6.17155,-32.679)">
			<title>Ссылка на текущую страницу.30</title>
			<desc>S0</desc>
			<v:userDefs>
				<v:ud v:nameU="visVersion" v:prompt="" v:val="VT0(15):26"/>
			</v:userDefs>
			<v:textBlock v:margins="rect(2,2,2,2)" v:tabSpace="42.5197"/>
			<v:textRect cx="22.6772" cy="91.7311" width="45.36" height="45.3543"/>
			<path d="M0 91.73 A22.6772 22.6772 0 0 1 45.35 91.73 A22.6772 22.6772 0 1 1 0 91.73 Z" class="st2"/>
			<text x="15.58" y="97.13" class="st4" v:langID="1033"><v:paragraph v:horizAlign="1"/><v:tabList/>S<tspan dy="-0.284em"
						class="st5" v:langID="1049" v:baseFontSize="18">0</tspan></text>		</g>
		<g id="shape12-83" v:mID="12" v:groupContext="shape" v:layerMember="0" transform="translate(28.8487,-70.9467)">
			<title>Динамическая соединительная линия.31</title>
			<desc>ν0</desc>
			<v:textBlock v:margins="rect(4,4,4,4)" v:tabSpace="42.5197"/>
			<v:textRect cx="49.6063" cy="86.0619" width="50" height="20.0036"/>
			<path d="M0 107.32 C0 96.69 23.86 96.69 47.72 96.69 C66.25 96.69 84.78 96.69 92.13 101.68 L92.32 101.99" class="st6"/>
			<rect v:rectContext="textBkgnd" x="45.7157" y="80.0621" width="7.78134" height="12.5214" class="st8"/>
			<text x="45.72" y="89.06" class="st9" v:langID="1049"><v:paragraph v:horizAlign="1"/><v:tabList/>ν<tspan dy="-0.284em"
						class="st10" v:baseFontSize="10">0</tspan></text>		</g>
		<g id="shape13-91" v:mID="13" v:groupContext="shape" v:layerMember="0" transform="translate(124.282,-25.5924)">
			<title>Динамическая соединительная линия.32</title>
			<desc>μ1</desc>
			<v:textBlock v:margins="rect(4,4,4,4)" v:tabSpace="42.5197"/>
			<v:textRect cx="-48.9449" cy="129.432" width="50" height="20.0036"/>
			<path d="M0 107.32 C-0 117.95 -23.86 117.95 -47.72 117.95 C-66.25 117.95 -84.78 117.95 -92.13 112.97 L-92.32 112.66"
					class="st6"/>
			<rect v:rectContext="textBkgnd" x="-53.3408" y="123.432" width="8.79208" height="12.5214" class="st8"/>
			<text x="-53.34" y="132.43" class="st9" v:langID="1049"><v:paragraph v:horizAlign="1"/><v:tabList/>μ<tspan
						dy="-0.284em" class="st10" v:baseFontSize="10">1</tspan>  </text>		</g>
	</g>
</svg>
