<?xml version="1.0" encoding="UTF-8" standalone="no"?>
<!DOCTYPE svg PUBLIC "-//W3C//DTD SVG 1.1//EN" "http://www.w3.org/Graphics/SVG/1.1/DTD/svg11.dtd">
<!-- Создано Microsoft Visio, экспорт SVG System 1.svg Страница-1 -->
<svg xmlns="http://www.w3.org/2000/svg" xmlns:xlink="http://www.w3.org/1999/xlink" xmlns:ev="http://www.w3.org/2001/xml-events"
		xmlns:v="http://schemas.microsoft.com/visio/2003/SVGExtensions/" width="4.81533in" height="1.66396in"
		viewBox="0 0 346.704 119.805" xml:space="preserve" color-interpolation-filters="sRGB" class="st13">
	<v:documentProperties v:langID="1049" v:metric="true" v:viewMarkup="false"/>

	<style type="text/css">
	<![CDATA[
		.st1 {fill:#ffffff;stroke:none;stroke-linecap:round;stroke-linejoin:round;stroke-width:0.75}
		.st2 {fill:#ffffff;stroke:#000000;stroke-linecap:round;stroke-linejoin:round;stroke-width:0.24}
		.st3 {fill:#000000;fill-opacity:1;stroke:#000000;stroke-opacity:1;stroke-width:0.08695652173913}
		.st4 {fill:#000000;font-family:Calibri;font-size:1.5em}
		.st5 {baseline-shift:-32.4951%;font-size:0.649902em}
		.st6 {marker-end:url(#mrkr4-24);stroke:#000000;stroke-linecap:round;stroke-linejoin:round;stroke-width:0.75}
		.st7 {fill:#000000;fill-opacity:1;stroke:#000000;stroke-opacity:1;stroke-width:0.22935779816514}
		.st8 {fill:#ffffff;stroke:none;stroke-linecap:butt}
		.st9 {fill:#000000;font-family:Calibri;font-size:0.833336em}
		.st10 {font-size:1em}
		.st11 {fill:#ffffff;stroke:none;stroke-linecap:butt;stroke-width:7.2}
		.st12 {baseline-shift:-32.4947%;font-size:0.649894em}
		.st13 {fill:none;fill-rule:evenodd;font-size:12px;overflow:visible;stroke-linecap:square;stroke-miterlimit:3}
	]]>
	</style>

	<defs id="Markers">
		<g id="lend4">
			<path d="M 2 1 L 0 0 L 2 -1 L 2 1 " style="stroke:none"/>
		</g>
		<marker id="mrkr4-6" class="st3" v:arrowType="4" v:arrowSize="2" v:setback="23" refX="-23" orient="auto"
				markerUnits="strokeWidth" overflow="visible">
			<use xlink:href="#lend4" transform="scale(-11.5,-11.5) "/>
		</marker>
		<marker id="mrkr4-24" class="st7" v:arrowType="4" v:arrowSize="2" v:setback="8.24" refX="-8.24" orient="auto"
				markerUnits="strokeWidth" overflow="visible">
			<use xlink:href="#lend4" transform="scale(-4.36,-4.36) "/>
		</marker>
	</defs>
	<g v:mID="0" v:index="1" v:groupContext="foregroundPage">
		<title>Страница-1</title>
		<v:pageProperties v:drawingScale="0.0393701" v:pageScale="0.0393701" v:drawingUnits="24" v:shadowOffsetX="8.50394"
				v:shadowOffsetY="-8.50394"/>
		<v:layer v:name="Соединительная линия" v:index="0"/>
		<v:layer v:name="Блок-схема" v:index="1"/>
		<g id="shape17-1" v:mID="17" v:groupContext="shape" transform="translate(0.502256,-0.375)">
			<title>Лист.17</title>
			<rect x="0" y="0.750003" width="345.827" height="119.055" class="st1"/>
		</g>
		<g id="shape1-3" v:mID="1" v:groupContext="shape" v:layerMember="0;1" transform="translate(101.605,-42.3278)">
			<title>Ссылка на текущую страницу</title>
			<desc>S1</desc>
			<v:userDefs>
				<v:ud v:nameU="visVersion" v:prompt="" v:val="VT0(15):26"/>
			</v:userDefs>
			<v:textBlock v:margins="rect(2,2,2,2)" v:tabSpace="42.5197"/>
			<v:textRect cx="22.6772" cy="97.128" width="45.36" height="45.3543"/>
			<path d="M0 97.13 A22.6772 22.6772 0 0 1 45.35 97.13 A22.6772 22.6772 0 1 1 0 97.13 Z" class="st2"/>
			<text x="15.58" y="102.53" class="st4" v:langID="1033"><v:paragraph v:horizAlign="1"/><v:tabList/>S<tspan dy="-0.284em"
						class="st5" v:baseFontSize="18">1</tspan></text>		</g>
		<g id="shape2-9" v:mID="2" v:groupContext="shape" v:layerMember="0;1" transform="translate(197.038,-42.3278)">
			<title>Ссылка на текущую страницу.6</title>
			<desc>S2</desc>
			<v:userDefs>
				<v:ud v:nameU="visVersion" v:prompt="" v:val="VT0(15):26"/>
			</v:userDefs>
			<v:textBlock v:margins="rect(2,2,2,2)" v:tabSpace="42.5197"/>
			<v:textRect cx="22.6772" cy="97.128" width="45.36" height="45.3543"/>
			<path d="M0 97.13 A22.6772 22.6772 0 0 1 45.35 97.13 A22.6772 22.6772 0 1 1 0 97.13 Z" class="st2"/>
			<text x="15.58" y="102.53" class="st4" v:langID="1033"><v:paragraph v:horizAlign="1"/><v:tabList/>S<tspan dy="-0.284em"
						class="st5" v:baseFontSize="18">2</tspan></text>		</g>
		<g id="shape3-14" v:mID="3" v:groupContext="shape" v:layerMember="0;1" transform="translate(292.471,-42.3278)">
			<title>Ссылка на текущую страницу.7</title>
			<desc>S3</desc>
			<v:userDefs>
				<v:ud v:nameU="visVersion" v:prompt="" v:val="VT0(15):26"/>
			</v:userDefs>
			<v:textBlock v:margins="rect(2,2,2,2)" v:tabSpace="42.5197"/>
			<v:textRect cx="22.6772" cy="97.128" width="45.36" height="45.3543"/>
			<path d="M0 97.13 A22.6772 22.6772 0 0 1 45.35 97.13 A22.6772 22.6772 0 1 1 0 97.13 Z" class="st2"/>
			<text x="15.58" y="102.53" class="st4" v:langID="1033"><v:paragraph v:horizAlign="1"/><v:tabList/>S<tspan dy="-0.284em"
						class="st5" v:baseFontSize="18">3</tspan></text>		</g>
		<g id="shape5-19" v:mID="5" v:groupContext="shape" v:layerMember="0" transform="translate(124.282,-80.5955)">
			<title>Динамическая соединительная линия</title>
			<desc>2λ</desc>
			<v:textBlock v:margins="rect(4,4,4,4)" v:tabSpace="42.5197"/>
			<v:textRect cx="49.3684" cy="91.4587" width="50" height="20.0036"/>
			<path d="M0 112.72 C0 102.09 23.86 102.09 47.72 102.09 C66.25 102.09 84.78 102.09 92.13 107.07 L92.32 107.38"
					class="st6"/>
			<rect v:rectContext="textBkgnd" x="44.5198" y="85.4589" width="9.69708" height="12.0001" class="st8"/>
			<text x="44.52" y="94.46" class="st9" v:langID="1033"><v:paragraph v:horizAlign="1"/><v:tabList/>2<tspan class="st10"
						v:langID="1049">λ</tspan> </text>		</g>
		<g id="shape6-28" v:mID="6" v:groupContext="shape" v:layerMember="0" transform="translate(219.715,-80.5955)">
			<title>Динамическая соединительная линия.6</title>
			<desc>λ</desc>
			<v:textBlock v:margins="rect(4,4,4,4)" v:tabSpace="42.5197"/>
			<v:textRect cx="47.1659" cy="92.876" width="50" height="20.0036"/>
			<path d="M0 112.72 C0 102.09 23.86 102.09 47.72 102.09 C66.25 102.09 84.78 102.09 92.13 107.07 L92.32 107.38"
					class="st6"/>
			<rect v:rectContext="textBkgnd" x="44.8516" y="86.8762" width="4.62881" height="12.0001" class="st8"/>
			<text x="44.85" y="95.88" class="st9" v:langID="1049"><v:paragraph v:horizAlign="1"/><v:tabList/>λ </text>		</g>
		<g id="shape9-35" v:mID="9" v:groupContext="shape" v:layerMember="0" transform="translate(315.148,-35.2411)">
			<title>Динамическая соединительная линия.20</title>
			<desc>μобщ</desc>
			<v:textBlock v:margins="rect(4,4,4,4)" v:tabSpace="42.5197"/>
			<v:textRect cx="-44.9631" cy="135.396" width="50" height="20.0036"/>
			<path d="M0 112.72 C-0 123.35 -23.86 123.35 -47.72 123.35 C-66.25 123.35 -84.78 123.35 -92.13 118.37 L-92.32 118.05"
					class="st6"/>
			<rect v:rectContext="textBkgnd" x="-53.5907" y="129.396" width="17.2551" height="12.5214" class="st11"/>
			<text x="-53.59" y="138.4" class="st9" v:langID="1049"><v:paragraph v:horizAlign="1"/><v:tabList/>μ<tspan dy="-0.284em"
						class="st12" v:baseFontSize="10">общ</tspan> </text>		</g>
		<g id="shape10-43" v:mID="10" v:groupContext="shape" v:layerMember="0" transform="translate(219.715,-35.2411)">
			<title>Динамическая соединительная линия.21</title>
			<desc>μобщ</desc>
			<v:textBlock v:margins="rect(4,4,4,4)" v:tabSpace="42.5197"/>
			<v:textRect cx="-48.8178" cy="135.396" width="50" height="20.0036"/>
			<path d="M0 112.72 C-0 123.35 -23.86 123.35 -47.72 123.35 C-66.25 123.35 -84.78 123.35 -92.13 118.37 L-92.32 118.05"
					class="st6"/>
			<rect v:rectContext="textBkgnd" x="-57.4454" y="129.396" width="17.2551" height="12.5214" class="st11"/>
			<text x="-57.45" y="138.4" class="st9" v:langID="1049"><v:paragraph v:horizAlign="1"/><v:tabList/>μ<tspan dy="-0.284em"
						class="st12" v:baseFontSize="10">общ</tspan> </text>		</g>
		<g id="shape11-51" v:mID="11" v:groupContext="shape" v:layerMember="0;1" transform="translate(6.17155,-42.3278)">
			<title>Ссылка на текущую страницу.30</title>
			<desc>S0</desc>
			<v:userDefs>
				<v:ud v:nameU="visVersion" v:prompt="" v:val="VT0(15):26"/>
			</v:userDefs>
			<v:textBlock v:margins="rect(2,2,2,2)" v:tabSpace="42.5197"/>
			<v:textRect cx="22.6772" cy="97.128" width="45.36" height="45.3543"/>
			<path d="M0 97.13 A22.6772 22.6772 0 0 1 45.35 97.13 A22.6772 22.6772 0 1 1 0 97.13 Z" class="st2"/>
			<text x="15.58" y="102.53" class="st4" v:langID="1033"><v:paragraph v:horizAlign="1"/><v:tabList/>S<tspan dy="-0.284em"
						class="st5" v:langID="1049" v:baseFontSize="18">0</tspan></text>		</g>
		<g id="shape12-56" v:mID="12" v:groupContext="shape" v:layerMember="0" transform="translate(28.8487,-80.5955)">
			<title>Динамическая соединительная линия.31</title>
			<desc>3λ</desc>
			<v:textBlock v:margins="rect(4,4,4,4)" v:tabSpace="42.5197"/>
			<v:textRect cx="49.6063" cy="91.4587" width="50" height="20.0036"/>
			<path d="M0 112.72 C0 102.09 23.86 102.09 47.72 102.09 C66.25 102.09 84.78 102.09 92.13 107.07 L92.32 107.38"
					class="st6"/>
			<rect v:rectContext="textBkgnd" x="44.7577" y="85.4589" width="9.69708" height="12.0001" class="st11"/>
			<text x="44.76" y="94.46" class="st9" v:langID="1033"><v:paragraph v:horizAlign="1"/><v:tabList/>3<tspan class="st10"
						v:langID="1049">λ</tspan> </text>		</g>
		<g id="shape13-64" v:mID="13" v:groupContext="shape" v:layerMember="0" transform="translate(124.282,-35.2411)">
			<title>Динамическая соединительная линия.32</title>
			<desc>μобщ</desc>
			<v:textBlock v:margins="rect(4,4,4,4)" v:tabSpace="42.5197"/>
			<v:textRect cx="-48.9449" cy="134.829" width="50" height="20.0036"/>
			<path d="M0 112.72 C-0 123.35 -23.86 123.35 -47.72 123.35 C-66.25 123.35 -84.78 123.35 -92.13 118.37 L-92.32 118.05"
					class="st6"/>
			<rect v:rectContext="textBkgnd" x="-57.5725" y="128.829" width="17.2551" height="12.5214" class="st11"/>
			<text x="-57.57" y="137.83" class="st9" v:langID="1049"><v:paragraph v:horizAlign="1"/><v:tabList/>μ<tspan
						dy="-0.284em" class="st12" v:baseFontSize="10">общ</tspan> </text>		</g>
	</g>
</svg>
